<svg width="20" height="20" viewBox="0 0 20 20" fill="none" xmlns="http://www.w3.org/2000/svg">
<path d="M3.26864 3.49275H3.26864L15.0104 3.49268C15.01 3.49268 15.01 3.49269 15.0105 3.49279C15.0134 3.4934 15.0308 3.49704 15.0525 3.51877C15.0742 3.54048 15.0779 3.55785 15.0785 3.56074C15.0786 3.56125 15.0786 3.56131 15.0786 3.56085V5.26523V5.76523H15.5786H16.336C16.8894 5.76523 17.3511 6.22697 17.3511 6.78031V15.4919C17.3511 16.0453 16.8894 16.507 16.336 16.507H3.07936C2.52593 16.507 2.06427 16.0452 2.06427 15.4919V4.69711C2.06427 4.0389 2.61031 3.49275 3.26864 3.49275ZM14.9421 4.1291V3.6291H14.4421H3.26864C2.66791 3.6291 2.20046 4.09655 2.20046 4.69728C2.20046 5.298 2.66792 5.76546 3.26864 5.76546H14.4421H14.9421V5.26546V4.1291ZM2.86932 5.83051L2.20046 5.59054L2.20046 6.30114L2.20053 15.4922C2.20053 15.9879 2.58342 16.3709 3.07926 16.3709H16.336C16.8318 16.3709 17.2147 15.988 17.2147 15.4922V13.5983V13.0983H16.7147H11.412C11.2679 13.0983 11.1328 13.0468 11.0244 12.9617H11.412H16.7147H17.2147V12.4617V9.81045V9.31045H16.7147H11.412H11.025C11.1333 9.22561 11.2682 9.17431 11.412 9.17431H16.7147H17.2147V8.67431V6.78053C17.2147 6.2847 16.8318 5.9018 16.336 5.9018H3.26864C3.13175 5.9018 2.99775 5.8766 2.86932 5.83051ZM10.912 12.4617V12.8492C10.827 12.7409 10.7756 12.6059 10.7756 12.462V9.81067C10.7756 9.66676 10.827 9.53175 10.912 9.42344V9.81045V12.4617ZM13.0483 11.1361C13.0483 10.9939 13.1636 10.8786 13.3058 10.8786C13.448 10.8786 13.5633 10.9938 13.5633 11.1361C13.5633 11.2783 13.4481 11.3935 13.3058 11.3935C13.1636 11.3935 13.0483 11.2782 13.0483 11.1361Z" fill="white" stroke="#F1F3F5"/>
<path fill-rule="evenodd" clip-rule="evenodd" d="M1.42859 4.69709C1.42859 3.68781 2.25922 2.857 3.26868 2.857L15.0104 2.85693C15.3829 2.85693 15.7144 3.18838 15.7144 3.56083V5.12948H16.3361C17.2407 5.12948 17.9869 5.87588 17.9869 6.78029V15.4919C17.9869 16.3964 17.2405 17.1426 16.3361 17.1426H3.0794C2.17484 17.1426 1.42859 16.3962 1.42859 15.4919V4.69709ZM14.3064 4.26481H3.26868C3.01905 4.26481 2.83622 4.44763 2.83622 4.69726C2.83622 4.94688 3.01906 5.12971 3.26868 5.12971H14.3064V4.26481ZM2.7005 6.30112L2.70057 15.4921C2.70057 15.7118 2.85961 15.8709 3.0793 15.8709H16.336C16.5557 15.8709 16.7147 15.7118 16.7147 15.4921V13.5983H11.412C10.7923 13.5983 10.2757 13.0816 10.2757 12.4619V9.81065C10.2757 9.19093 10.7924 8.67429 11.412 8.67429H16.7147V6.78051C16.7147 6.56083 16.5557 6.40178 16.336 6.40178H3.26868C3.11937 6.40178 2.97453 6.3811 2.83622 6.34375C2.79024 6.33133 2.74497 6.31708 2.7005 6.30112ZM2.83622 6.48396C2.97472 6.51845 3.11948 6.5375 3.26868 6.5375H16.336C16.4807 6.5375 16.579 6.63579 16.579 6.78051V8.53858H11.412C10.7174 8.53858 10.1399 9.116 10.1399 9.81065V12.4619C10.1399 13.1566 10.7174 13.734 11.412 13.734H16.579V15.4921C16.579 15.6369 16.4807 15.7351 16.336 15.7351H3.0793C2.93457 15.7351 2.83629 15.6369 2.83629 15.4921L2.83622 6.48396ZM16.579 9.94615H11.5478V12.326H16.579V9.94615ZM12.4127 11.1361C12.4127 10.6427 12.8125 10.2429 13.3059 10.2429C13.7992 10.2429 14.199 10.6427 14.199 11.1361C14.199 11.6294 13.7992 12.0292 13.3059 12.0292C12.8125 12.0292 12.4127 11.6294 12.4127 11.1361ZM1.56431 4.69709C1.56431 3.76276 2.33418 2.99273 3.26868 2.99273L15.0104 2.99266C15.3079 2.99266 15.5787 3.26334 15.5787 3.56083V5.2652H16.3361C17.1657 5.2652 17.8512 5.95083 17.8512 6.78029V15.4919C17.8512 16.3214 17.1656 17.0069 16.3361 17.0069H3.0794C2.2498 17.0069 1.56431 16.3213 1.56431 15.4919V4.69709ZM3.26868 4.12908C2.9441 4.12908 2.7005 4.37268 2.7005 4.69726C2.7005 5.02184 2.9441 5.26544 3.26868 5.26544H14.4422V4.12908H3.26868ZM11.412 9.81043V12.4617H16.7147V9.81043H11.412ZM12.5484 11.1361C12.5484 10.7177 12.8875 10.3786 13.3059 10.3786C13.7242 10.3786 14.0633 10.7177 14.0633 11.1361C14.0633 11.5544 13.7242 11.8935 13.3059 11.8935C12.8875 11.8935 12.5484 11.5544 12.5484 11.1361Z" fill="white"/>
</svg>
