<svg width="20" height="20" viewBox="0 0 20 20" fill="none" xmlns="http://www.w3.org/2000/svg">
<path d="M1.66663 16.6667H3.33329M3.33329 16.6667H11.6666M3.33329 16.6667V5.16683C3.33329 4.23341 3.33329 3.76635 3.51495 3.40983C3.67474 3.09623 3.92952 2.84144 4.24312 2.68166C4.59964 2.5 5.0667 2.5 6.00012 2.5H9.00012C9.93354 2.5 10.3996 2.5 10.7561 2.68166C11.0697 2.84144 11.3254 3.09623 11.4851 3.40983C11.6666 3.766 11.6666 4.23249 11.6666 5.16409V10M11.6666 16.6667H16.6666M11.6666 16.6667V10M16.6666 16.6667H18.3333M16.6666 16.6667V10C16.6666 9.22343 16.6665 8.83534 16.5397 8.52905C16.3705 8.12067 16.0464 7.79602 15.638 7.62687C15.3317 7.5 14.943 7.5 14.1664 7.5C13.3898 7.5 13.0016 7.5 12.6953 7.62687C12.2869 7.79602 11.9627 8.12067 11.7935 8.52905C11.6666 8.83534 11.6666 9.22343 11.6666 10M5.83329 8.33333H9.16663M5.83329 5.83333H9.16663" stroke="white" stroke-width="1.5" stroke-linecap="round" stroke-linejoin="round"/>
</svg>
