<svg width="20" height="20" viewBox="0 0 20 20" fill="none" xmlns="http://www.w3.org/2000/svg">
<path d="M1.66663 16.6668H3.33329M3.33329 16.6668H9.99996M3.33329 16.6668V6.00033C3.33329 5.0669 3.33329 4.59985 3.51495 4.24333C3.67474 3.92972 3.92952 3.67494 4.24312 3.51515C4.59964 3.3335 5.0667 3.3335 6.00012 3.3335H7.33346C8.26688 3.3335 8.73334 3.3335 9.08986 3.51515C9.40347 3.67494 9.65869 3.92972 9.81848 4.24333C9.99996 4.5995 9.99996 5.06599 9.99996 5.99759V8.53857M9.99996 16.6668H16.6666M9.99996 16.6668V8.53857M16.6666 16.6668H18.3333M16.6666 16.6668V11.9736C16.6666 11.536 16.6666 11.3168 16.6141 11.1126C16.5676 10.9317 16.4907 10.76 16.3872 10.6045C16.2704 10.429 16.1079 10.2825 15.7822 9.98991L13.8655 8.26798C13.2355 7.702 12.9204 7.41912 12.5643 7.31177C12.2505 7.21721 11.9158 7.21721 11.6021 7.31177C11.246 7.41911 10.931 7.70212 10.3011 8.26798L9.99996 8.53857" stroke="white" stroke-width="1.5" stroke-linecap="round" stroke-linejoin="round"/>
</svg>
