<svg width="20" height="20" viewBox="0 0 20 20" fill="none" xmlns="http://www.w3.org/2000/svg">
<path d="M2.5 9.1665H3.37123M3.37123 9.1665H16.6288M3.37123 9.1665C3.38051 9.12362 3.39147 9.0811 3.40413 9.0391C3.43435 8.93886 3.47702 8.84246 3.56283 8.6494L4.85138 5.75016C5.10614 5.17695 5.23373 4.89017 5.43508 4.68001C5.61306 4.49425 5.83136 4.35234 6.0734 4.26515C6.34723 4.1665 6.66113 4.1665 7.28841 4.1665H12.7113C13.3386 4.1665 13.6528 4.1665 13.9266 4.26515C14.1687 4.35234 14.3866 4.49425 14.5646 4.68001C14.7658 4.89003 14.8932 5.17657 15.1476 5.74901L16.4413 8.65995C16.524 8.84601 16.5661 8.9407 16.5958 9.0391C16.6085 9.0811 16.6195 9.12362 16.6288 9.1665M3.37123 9.1665C3.36085 9.21453 3.35258 9.26303 3.34643 9.31177C3.33333 9.41564 3.33333 9.52123 3.33333 9.7325V14.1665M16.6288 9.1665H17.5M16.6288 9.1665C16.6392 9.21453 16.6475 9.26303 16.6536 9.31177C16.6667 9.41501 16.6667 9.51999 16.6667 9.7287V14.1666M16.6667 14.1666L13.3333 14.1666M16.6667 14.1666V14.9997C16.6667 15.9202 15.9205 16.6665 15 16.6665C14.0795 16.6665 13.3333 15.9203 13.3333 14.9998V14.1666M13.3333 14.1666L6.66667 14.1665M6.66667 14.1665H3.33333M6.66667 14.1665V14.9998C6.66667 15.9203 5.92047 16.6665 5 16.6665C4.07953 16.6665 3.33333 15.9203 3.33333 14.9998V14.1665" stroke="white" stroke-width="1.5" stroke-linecap="round" stroke-linejoin="round"/>
</svg>
