<?xml version="1.0" standalone="no"?>
<!DOCTYPE svg PUBLIC "-//W3C//DTD SVG 20010904//EN"
    "http://www.w3.org/TR/2001/REC-SVG-20010904/DTD/svg10.dtd">
<svg version="1.0" xmlns="http://www.w3.org/2000/svg"
     width="1280.000000pt" height="538.000000pt" viewBox="0 0 1280.000000 538.000000"
     preserveAspectRatio="xMidYMid meet">

    <g transform="translate(0.000000,538.000000) scale(0.100000,-0.100000)"
       fill="#ffff" stroke="#1c2f91">
        <path d="M1346 5369 c-277 -36 -542 -168 -758 -377 -275 -266 -453 -599 -533
-995 -44 -219 -47 -315 -43 -1387 5 -1103 3 -1076 68 -1326 167 -645 611
-1123 1161 -1246 l104 -23 5050 0 5050 0 104 23 c653 146 1147 791 1220 1592
15 155 15 1975 0 2130 -44 490 -240 916 -567 1232 -191 185 -403 300 -672 365
-72 17 -305 18 -5095 19 -2868 1 -5049 -2 -5089 -7z m10055 -234 c237 -41 437
-151 629 -344 240 -241 380 -517 456 -901 16 -76 18 -195 21 -1110 3 -696 1
-1062 -7 -1140 -40 -420 -220 -807 -497 -1070 -152 -145 -324 -244 -518 -297
l-100 -28 -5010 0 -5010 0 -100 28 c-544 151 -941 683 -1014 1359 -15 131 -15
1988 -1 2129 64 630 431 1151 939 1333 161 58 -193 54 5177 55 4311 1 4962 -1
5035 -14z"/>
        <path d="M11221 3975 c-89 -28 -146 -112 -139 -206 8 -110 86 -183 199 -183
104 -1 185 72 196 178 16 140 -122 253 -256 211z m125 -44 c57 -26 87 -72 92
-140 3 -46 0 -62 -20 -90 -39 -58 -72 -76 -138 -76 -66 0 -99 18 -137 75 -32
46 -32 124 0 171 24 37 97 79 137 79 14 0 43 -9 66 -19z"/>
        <path d="M11190 3785 c0 -98 1 -105 20 -105 17 0 20 7 20 45 0 25 3 45 8 45
16 0 53 -33 67 -61 11 -20 23 -29 41 -29 22 0 24 2 13 23 -6 12 -20 31 -31 43
-19 21 -19 21 7 38 31 20 33 58 5 86 -16 16 -33 20 -85 20 l-65 0 0 -105z
m122 57 c19 -19 -4 -42 -43 -42 -37 0 -39 2 -39 31 0 31 1 31 37 26 20 -4 40
-10 45 -15z"/>
        <path d="M4609 3875 c-147 -29 -257 -112 -321 -242 -32 -65 -33 -73 -32 -178
0 -100 3 -116 29 -170 16 -33 30 -62 32 -65 1 -3 -12 -15 -31 -27 -18 -11 -40
-36 -49 -55 -26 -55 -289 -1396 -284 -1446 5 -51 45 -106 97 -133 31 -17 60
-19 300 -19 236 0 269 2 306 19 46 21 78 57 93 104 18 58 273 1361 272 1397 0
19 -4 47 -10 61 -8 24 -5 31 34 69 152 149 152 439 -1 580 -56 51 -147 94
-235 109 -80 14 -115 13 -200 -4z m222 -171 c115 -34 185 -152 159 -268 -14
-64 -31 -94 -77 -137 -51 -49 -87 -66 -168 -79 -166 -27 -296 48 -325 184 -20
95 21 199 101 259 72 53 207 71 310 41z m29 -637 c0 -1 -61 -306 -135 -677
-74 -371 -135 -676 -135 -677 0 -2 -107 -3 -239 -3 l-238 0 133 668 c74 367
136 673 139 680 3 9 61 12 240 12 129 0 235 -1 235 -3z"/>
        <path d="M7760 3653 c-89 -11 -272 -57 -354 -89 -302 -121 -529 -345 -652
-640 -61 -149 -101 -377 -90 -513 24 -271 100 -452 257 -611 145 -148 323
-231 599 -281 66 -12 320 -11 403 2 175 26 351 86 486 166 91 53 117 76 141
123 10 20 53 210 96 423 69 346 76 392 66 426 -24 78 -94 130 -176 131 -38 0
-38 0 120 126 183 145 214 183 214 259 0 62 -21 99 -113 193 -191 197 -468
294 -823 290 -77 0 -155 -3 -174 -5z m305 -164 c266 -22 471 -115 607 -273
l37 -43 -177 -141 -177 -140 -56 53 c-100 95 -210 135 -369 135 -188 -1 -310
-48 -425 -164 -77 -78 -122 -157 -150 -265 -22 -86 -23 -230 -1 -303 29 -101
112 -186 223 -229 112 -43 385 -34 429 14 6 7 28 98 48 202 21 105 42 211 48
238 l10 47 220 0 220 0 -5 -22 c-3 -13 -36 -176 -72 -363 -78 -393 -62 -361
-218 -438 -173 -85 -336 -121 -552 -120 -435 1 -746 207 -847 558 -19 69 -22
102 -22 235 1 133 5 169 27 251 116 437 478 729 952 768 55 4 107 9 115 10 8
0 69 -4 135 -10z m7 -596 c28 -8 68 -33 95 -58 l48 -44 -63 -1 c-93 0 -157
-31 -188 -92 -8 -15 -32 -118 -54 -229 -22 -111 -42 -204 -44 -207 -9 -8 -176
-3 -213 7 -45 12 -108 61 -128 101 -21 41 -28 126 -16 199 24 147 115 266 241
316 89 35 226 39 322 8z"/>
        <path d="M9855 3646 c-328 -55 -590 -198 -767 -417 -159 -197 -238 -390 -269
-654 -13 -111 -1 -265 31 -392 72 -283 297 -516 590 -611 155 -50 205 -57 420
-57 196 1 210 2 334 33 459 114 775 428 887 882 32 128 35 415 6 525 -56 212
-161 372 -325 498 -100 77 -219 132 -361 169 -103 27 -136 31 -291 34 -117 2
-202 -1 -255 -10z m464 -176 c289 -59 507 -242 586 -493 70 -220 47 -487 -61
-716 -100 -213 -271 -381 -491 -483 -221 -101 -522 -130 -769 -73 -248 57
-446 212 -536 420 -51 117 -62 178 -62 345 1 135 4 168 27 253 99 370 371 638
744 733 181 46 383 51 562 14z"/>
        <path d="M9895 3067 c-221 -57 -375 -251 -404 -508 -33 -292 119 -469 401
-469 104 0 170 15 253 59 180 93 295 301 295 530 0 105 -18 176 -61 242 -38
59 -74 89 -154 126 -52 23 -75 27 -170 30 -66 1 -130 -3 -160 -10z m273 -179
c82 -38 118 -133 102 -264 -21 -169 -110 -296 -240 -345 -76 -29 -212 -29
-268 0 -89 46 -122 131 -105 270 19 148 98 272 208 328 86 45 221 49 303 11z"/>
        <path d="M2140 3614 c-47 -20 -74 -48 -93 -92 -28 -64 -369 -1781 -364 -1830
5 -51 45 -106 97 -133 32 -18 67 -19 531 -19 542 0 649 6 814 49 438 114 736
408 843 831 24 95 26 123 27 290 0 161 -3 195 -22 262 -32 109 -65 178 -127
266 -130 186 -313 297 -586 359 -114 26 -119 27 -600 30 -422 3 -490 1 -520
-13z m1031 -170 c203 -34 351 -104 469 -223 153 -154 218 -361 190 -611 -46
-415 -280 -706 -676 -838 -166 -56 -246 -62 -803 -62 -275 0 -501 3 -501 8 0
10 340 1714 345 1730 7 20 851 17 976 -4z"/>
        <path d="M2521 2593 c-50 -258 -91 -471 -91 -475 0 -15 411 -9 483 7 99 21
196 76 266 151 107 114 156 254 149 430 -3 89 -7 108 -36 167 -35 71 -80 114
-153 145 -78 34 -146 42 -338 42 l-188 0 -92 -467z m446 297 c83 -11 145 -39
169 -76 42 -63 36 -217 -11 -323 -33 -72 -112 -152 -182 -182 -67 -29 -313
-54 -313 -32 0 8 109 568 117 601 5 20 11 22 77 22 39 0 104 -5 143 -10z"/>
        <path d="M5275 3211 c-76 -34 -92 -68 -136 -293 -42 -211 -43 -237 -7 -295 34
-57 79 -77 194 -83 l102 -5 -229 -219 c-127 -121 -236 -231 -243 -245 -19 -37
-69 -296 -70 -363 -1 -48 3 -61 29 -93 64 -79 20 -75 755 -75 l656 0 44 23
c69 34 81 61 129 292 47 227 47 249 -1 310 -39 50 -89 65 -223 65 l-120 0 233
226 c128 125 239 239 247 254 8 15 29 99 46 188 29 139 31 165 21 200 -16 54
-48 91 -96 113 -39 17 -79 19 -666 19 -583 0 -628 -2 -665 -19z m1265 -160 c0
-10 -11 -73 -25 -140 l-24 -121 -158 -153 c-87 -84 -254 -245 -371 -358 l-213
-204 311 -3 c193 -1 310 -6 310 -12 0 -5 -16 -85 -35 -177 -19 -92 -35 -169
-35 -170 0 -2 -281 -3 -625 -3 -344 0 -625 4 -625 8 0 4 11 66 25 137 22 115
28 132 57 162 18 19 187 181 375 361 l343 327 -290 3 c-231 2 -290 5 -290 15
0 15 58 314 65 335 3 9 133 12 605 12 579 0 600 -1 600 -19z"/>
    </g>
</svg>
