<svg width="20" height="20" viewBox="0 0 20 20" fill="none" xmlns="http://www.w3.org/2000/svg">
<mask id="path-1-inside-1_888_737" fill="white">
<path d="M3.40912 3.84521C2.69328 3.84521 2.10536 4.43397 2.10536 5.15082V13.544H1.36035C1.16243 13.544 0.989533 13.7301 0.987854 13.9171V14.6631C0.987854 15.4833 1.65884 16.1552 2.47786 16.1552H17.0054C17.8244 16.1552 18.4954 15.4833 18.4954 14.6631V13.9171C18.4954 13.7217 18.318 13.544 18.1229 13.544H17.3779V5.15082C17.3779 4.43397 16.79 3.84521 16.0742 3.84521H3.40912ZM3.40912 4.59128H16.0742C16.3902 4.59128 16.6329 4.83438 16.6329 5.15082V13.544H2.85036V5.15082C2.85036 4.83438 3.09313 4.59128 3.40912 4.59128ZM1.73285 14.2901H17.7504V14.6631C17.7504 15.0829 17.4247 15.4092 17.0054 15.4092H2.47786C2.05868 15.4092 1.73285 15.0829 1.73285 14.6631V14.2901Z"/>
</mask>
<path d="M3.40912 3.84521C2.69328 3.84521 2.10536 4.43397 2.10536 5.15082V13.544H1.36035C1.16243 13.544 0.989533 13.7301 0.987854 13.9171V14.6631C0.987854 15.4833 1.65884 16.1552 2.47786 16.1552H17.0054C17.8244 16.1552 18.4954 15.4833 18.4954 14.6631V13.9171C18.4954 13.7217 18.318 13.544 18.1229 13.544H17.3779V5.15082C17.3779 4.43397 16.79 3.84521 16.0742 3.84521H3.40912ZM3.40912 4.59128H16.0742C16.3902 4.59128 16.6329 4.83438 16.6329 5.15082V13.544H2.85036V5.15082C2.85036 4.83438 3.09313 4.59128 3.40912 4.59128ZM1.73285 14.2901H17.7504V14.6631C17.7504 15.0829 17.4247 15.4092 17.0054 15.4092H2.47786C2.05868 15.4092 1.73285 15.0829 1.73285 14.6631V14.2901Z" fill="white"/>
<path d="M2.10536 13.544V14.544H3.10536V13.544H2.10536ZM0.987854 13.9171L-0.012146 13.9081V13.9171H0.987854ZM17.3779 13.544H16.3779V14.544H17.3779V13.544ZM16.6329 13.544V14.544H17.6329V13.544H16.6329ZM2.85036 13.544H1.85036V14.544H2.85036V13.544ZM1.73285 14.2901V13.2901H0.732854V14.2901H1.73285ZM17.7504 14.2901H18.7504V13.2901H17.7504V14.2901ZM3.40912 2.84521C2.13966 2.84521 1.10536 3.88302 1.10536 5.15082H3.10536C3.10536 4.98492 3.2469 4.84521 3.40912 4.84521V2.84521ZM1.10536 5.15082V13.544H3.10536V5.15082H1.10536ZM2.10536 12.544H1.36035V14.544H2.10536V12.544ZM1.36035 12.544C0.944674 12.544 0.605318 12.736 0.384656 12.9622C0.166733 13.1856 -0.00859064 13.5165 -0.0121057 13.9081L1.98781 13.9261C1.98598 14.1307 1.89794 14.275 1.81636 14.3587C1.73205 14.4451 1.5781 14.544 1.36035 14.544V12.544ZM-0.012146 13.9171V14.6631H1.98785V13.9171H-0.012146ZM-0.012146 14.6631C-0.012146 16.0342 1.10521 17.1552 2.47786 17.1552V15.1552C2.21247 15.1552 1.98785 14.9324 1.98785 14.6631H-0.012146ZM2.47786 17.1552H17.0054V15.1552H2.47786V17.1552ZM17.0054 17.1552C18.3781 17.1552 19.4954 16.0342 19.4954 14.6631H17.4954C17.4954 14.9324 17.2708 15.1552 17.0054 15.1552V17.1552ZM19.4954 14.6631V13.9171H17.4954V14.6631H19.4954ZM19.4954 13.9171C19.4954 13.1709 18.8718 12.544 18.1229 12.544V14.544C17.9165 14.544 17.7645 14.4538 17.6747 14.3638C17.5849 14.2739 17.4954 14.1223 17.4954 13.9171H19.4954ZM18.1229 12.544H17.3779V14.544H18.1229V12.544ZM18.3779 13.544V5.15082H16.3779V13.544H18.3779ZM18.3779 5.15082C18.3779 3.883 17.3436 2.84521 16.0742 2.84521V4.84521C16.2364 4.84521 16.3779 4.98493 16.3779 5.15082H18.3779ZM16.0742 2.84521H3.40912V4.84521H16.0742V2.84521ZM3.40912 5.59128H16.0742V3.59128H3.40912V5.59128ZM16.0742 5.59128C15.969 5.59128 15.8535 5.54814 15.7645 5.45902C15.6755 5.36994 15.6329 5.25488 15.6329 5.15082H17.6329C17.6329 4.28335 16.9437 3.59128 16.0742 3.59128V5.59128ZM15.6329 5.15082V13.544H17.6329V5.15082H15.6329ZM16.6329 12.544H2.85036V14.544H16.6329V12.544ZM3.85036 13.544V5.15082H1.85036V13.544H3.85036ZM3.85036 5.15082C3.85036 5.25485 3.80781 5.36991 3.71884 5.459C3.62983 5.54814 3.51427 5.59128 3.40912 5.59128V3.59128C2.53952 3.59128 1.85036 4.28341 1.85036 5.15082H3.85036ZM1.73285 15.2901H17.7504V13.2901H1.73285V15.2901ZM16.7504 14.2901V14.6631H18.7504V14.2901H16.7504ZM16.7504 14.6631C16.7504 14.6079 16.7742 14.5403 16.8275 14.487C16.8809 14.4335 16.949 14.4092 17.0054 14.4092V16.4092C17.9783 16.4092 18.7504 15.6338 18.7504 14.6631H16.7504ZM17.0054 14.4092H2.47786V16.4092H17.0054V14.4092ZM2.47786 14.4092C2.53431 14.4092 2.60246 14.4335 2.65577 14.4869C2.70904 14.5403 2.73285 14.6079 2.73285 14.6631H0.732854C0.732854 15.6338 1.50506 16.4092 2.47786 16.4092V14.4092ZM2.73285 14.6631V14.2901H0.732854V14.6631H2.73285Z" fill="white" mask="url(#path-1-inside-1_888_737)"/>
<mask id="path-3-inside-2_888_737" fill="white">
<path fill-rule="evenodd" clip-rule="evenodd" d="M0.987852 13.9167C0.98953 13.7297 1.16242 13.5436 1.36035 13.5436H2.10536V5.15045C2.10536 4.4336 2.69328 3.84485 3.40912 3.84485H16.0742C16.79 3.84485 17.3779 4.4336 17.3779 5.15045V13.5436H18.1229C18.318 13.5436 18.4954 13.7214 18.4954 13.9167V14.6627C18.4954 15.4829 17.8244 16.1549 17.0054 16.1549H2.47786C1.65884 16.1549 0.987852 15.4829 0.987852 14.6627V13.9167ZM17.6515 13.2701V5.15045C17.6515 4.28288 16.9414 3.57129 16.0742 3.57129H3.40912C2.54183 3.57129 1.8318 4.28288 1.8318 5.15045V13.2701H1.36035C1.17476 13.2701 1.01459 13.3564 0.904694 13.469C0.795552 13.5809 0.715873 13.7392 0.714309 13.9142L0.714294 14.6627C0.714294 15.6336 1.50739 16.4284 2.47786 16.4284H17.0054C17.9759 16.4284 18.769 15.6336 18.769 14.6627V13.9167C18.769 13.5706 18.4694 13.2701 18.123 13.2701H17.6515ZM16.0742 4.86446H3.40912C3.24457 4.86446 3.12392 4.98472 3.12392 5.15045V13.2701H16.3594V5.15045C16.3594 4.98472 16.2387 4.86446 16.0742 4.86446ZM17.4769 14.5633H2.00641V14.6627C2.00641 14.9318 2.21013 15.1353 2.47786 15.1353H17.0054C17.2732 15.1353 17.4769 14.9318 17.4769 14.6627V14.5633ZM16.0742 4.59091H3.40912C3.09312 4.59091 2.85036 4.83401 2.85036 5.15045V13.5436H16.6329V5.15045C16.6329 4.83401 16.3902 4.59091 16.0742 4.59091ZM1.73285 14.2897V14.6627C1.73285 15.0825 2.05868 15.4088 2.47786 15.4088H17.0054C17.4247 15.4088 17.7504 15.0825 17.7504 14.6627V14.2897H1.73285Z"/>
</mask>
<path fill-rule="evenodd" clip-rule="evenodd" d="M0.987852 13.9167C0.98953 13.7297 1.16242 13.5436 1.36035 13.5436H2.10536V5.15045C2.10536 4.4336 2.69328 3.84485 3.40912 3.84485H16.0742C16.79 3.84485 17.3779 4.4336 17.3779 5.15045V13.5436H18.1229C18.318 13.5436 18.4954 13.7214 18.4954 13.9167V14.6627C18.4954 15.4829 17.8244 16.1549 17.0054 16.1549H2.47786C1.65884 16.1549 0.987852 15.4829 0.987852 14.6627V13.9167ZM17.6515 13.2701V5.15045C17.6515 4.28288 16.9414 3.57129 16.0742 3.57129H3.40912C2.54183 3.57129 1.8318 4.28288 1.8318 5.15045V13.2701H1.36035C1.17476 13.2701 1.01459 13.3564 0.904694 13.469C0.795552 13.5809 0.715873 13.7392 0.714309 13.9142L0.714294 14.6627C0.714294 15.6336 1.50739 16.4284 2.47786 16.4284H17.0054C17.9759 16.4284 18.769 15.6336 18.769 14.6627V13.9167C18.769 13.5706 18.4694 13.2701 18.123 13.2701H17.6515ZM16.0742 4.86446H3.40912C3.24457 4.86446 3.12392 4.98472 3.12392 5.15045V13.2701H16.3594V5.15045C16.3594 4.98472 16.2387 4.86446 16.0742 4.86446ZM17.4769 14.5633H2.00641V14.6627C2.00641 14.9318 2.21013 15.1353 2.47786 15.1353H17.0054C17.2732 15.1353 17.4769 14.9318 17.4769 14.6627V14.5633ZM16.0742 4.59091H3.40912C3.09312 4.59091 2.85036 4.83401 2.85036 5.15045V13.5436H16.6329V5.15045C16.6329 4.83401 16.3902 4.59091 16.0742 4.59091ZM1.73285 14.2897V14.6627C1.73285 15.0825 2.05868 15.4088 2.47786 15.4088H17.0054C17.4247 15.4088 17.7504 15.0825 17.7504 14.6627V14.2897H1.73285Z" fill="#white"/>
<path d="M0.987852 13.9167L-0.0121484 13.9077V13.9167H0.987852ZM2.10536 13.5436V14.5436H3.10536V13.5436H2.10536ZM17.3779 13.5436H16.3779V14.5436H17.3779V13.5436ZM17.6515 13.2701H16.6515V14.2701H17.6515V13.2701ZM1.8318 13.2701V14.2701H2.8318V13.2701H1.8318ZM0.904694 13.469L0.188904 12.7707L0.188734 12.7709L0.904694 13.469ZM0.714309 13.9142L-0.285691 13.9053L-0.285691 13.9142L0.714309 13.9142ZM0.714294 14.6627L-0.285706 14.6627V14.6627H0.714294ZM18.123 13.2701L18.1232 12.2701H18.123V13.2701ZM3.12392 13.2701H2.12392V14.2701H3.12392V13.2701ZM16.3594 13.2701V14.2701H17.3594V13.2701H16.3594ZM17.4769 14.5633H18.4769V13.5633H17.4769V14.5633ZM2.00641 14.5633V13.5633H1.00641V14.5633H2.00641ZM2.85036 13.5436H1.85036V14.5436H2.85036V13.5436ZM16.6329 13.5436V14.5436H17.6329V13.5436H16.6329ZM1.73285 14.2897V13.2897H0.732852V14.2897H1.73285ZM17.7504 14.2897H18.7504V13.2897H17.7504V14.2897ZM1.98781 13.9257C1.98597 14.1303 1.89794 14.2747 1.81636 14.3583C1.73205 14.4447 1.5781 14.5436 1.36035 14.5436V12.5436C0.944672 12.5436 0.605316 12.7356 0.384653 12.9618C0.166731 13.1852 -0.00859308 13.5161 -0.0121081 13.9077L1.98781 13.9257ZM1.36035 14.5436H2.10536V12.5436H1.36035V14.5436ZM3.10536 13.5436V5.15045H1.10536V13.5436H3.10536ZM3.10536 5.15045C3.10536 4.98455 3.2469 4.84485 3.40912 4.84485V2.84485C2.13966 2.84485 1.10536 3.88265 1.10536 5.15045H3.10536ZM3.40912 4.84485H16.0742V2.84485H3.40912V4.84485ZM16.0742 4.84485C16.2364 4.84485 16.3779 4.98456 16.3779 5.15045H18.3779C18.3779 3.88263 17.3436 2.84485 16.0742 2.84485V4.84485ZM16.3779 5.15045V13.5436H18.3779V5.15045H16.3779ZM17.3779 14.5436H18.1229V12.5436H17.3779V14.5436ZM18.1229 14.5436C17.9165 14.5436 17.7645 14.4534 17.6747 14.3635C17.5849 14.2735 17.4954 14.1219 17.4954 13.9167H19.4954C19.4954 13.1705 18.8718 12.5436 18.1229 12.5436V14.5436ZM17.4954 13.9167V14.6627H19.4954V13.9167H17.4954ZM17.4954 14.6627C17.4954 14.932 17.2708 15.1549 17.0054 15.1549V17.1549C18.3781 17.1549 19.4954 16.0339 19.4954 14.6627H17.4954ZM17.0054 15.1549H2.47786V17.1549H17.0054V15.1549ZM2.47786 15.1549C2.21246 15.1549 1.98785 14.932 1.98785 14.6627H-0.0121484C-0.0121484 16.0339 1.10521 17.1549 2.47786 17.1549V15.1549ZM1.98785 14.6627V13.9167H-0.0121484V14.6627H1.98785ZM18.6515 13.2701V5.15045H16.6515V13.2701H18.6515ZM18.6515 5.15045C18.6515 3.73197 17.4951 2.57129 16.0742 2.57129V4.57129C16.3878 4.57129 16.6515 4.8338 16.6515 5.15045H18.6515ZM16.0742 2.57129H3.40912V4.57129H16.0742V2.57129ZM3.40912 2.57129C1.98814 2.57129 0.831802 3.732 0.831802 5.15045H2.8318C2.8318 4.83376 3.09552 4.57129 3.40912 4.57129V2.57129ZM0.831802 5.15045V13.2701H2.8318V5.15045H0.831802ZM1.8318 12.2701H1.36035V14.2701H1.8318V12.2701ZM1.36035 12.2701C0.85693 12.2701 0.450335 12.5027 0.188904 12.7707L1.62048 14.1673C1.57884 14.21 1.49259 14.2701 1.36035 14.2701V12.2701ZM0.188734 12.7709C-0.0692549 13.0354 -0.281413 13.4312 -0.285651 13.9053L1.71427 13.9232C1.71316 14.0473 1.66036 14.1264 1.62065 14.1671L0.188734 12.7709ZM-0.285691 13.9142L-0.285706 14.6627L1.71429 14.6627L1.71431 13.9142L-0.285691 13.9142ZM-0.285706 14.6627C-0.285706 16.1845 0.953697 17.4284 2.47786 17.4284V15.4284C2.06109 15.4284 1.71429 15.0828 1.71429 14.6627H-0.285706ZM2.47786 17.4284H17.0054V15.4284H2.47786V17.4284ZM17.0054 17.4284C18.5296 17.4284 19.769 16.1845 19.769 14.6627H17.769C17.769 15.0828 17.4222 15.4284 17.0054 15.4284V17.4284ZM19.769 14.6627V13.9167H17.769V14.6627H19.769ZM19.769 13.9167C19.769 13.0198 19.0232 12.2703 18.1232 12.2701L18.1228 14.2701C18.0037 14.2701 17.9177 14.2197 17.8682 14.1702C17.8189 14.1207 17.769 14.0351 17.769 13.9167H19.769ZM18.123 12.2701H17.6515V14.2701H18.123V12.2701ZM16.0742 3.86446H3.40912V5.86446H16.0742V3.86446ZM3.40912 3.86446C2.69134 3.86446 2.12392 4.43339 2.12392 5.15045H4.12392C4.12392 5.31699 4.05963 5.50455 3.91227 5.65206C3.76502 5.79946 3.57712 5.86446 3.40912 5.86446V3.86446ZM2.12392 5.15045V13.2701H4.12392V5.15045H2.12392ZM3.12392 14.2701H16.3594V12.2701H3.12392V14.2701ZM17.3594 13.2701V5.15045H15.3594V13.2701H17.3594ZM17.3594 5.15045C17.3594 4.43337 16.7919 3.86446 16.0742 3.86446V5.86446C15.9062 5.86446 15.7183 5.79948 15.571 5.65207C15.4236 5.50455 15.3594 5.31698 15.3594 5.15045H17.3594ZM17.4769 13.5633H2.00641V15.5633H17.4769V13.5633ZM1.00641 14.5633V14.6627H3.00641V14.5633H1.00641ZM1.00641 14.6627C1.00641 15.4828 1.65659 16.1353 2.47786 16.1353V14.1353C2.60408 14.1353 2.74238 14.1862 2.84931 14.2933C2.9563 14.4004 3.00641 14.5382 3.00641 14.6627H1.00641ZM2.47786 16.1353H17.0054V14.1353H2.47786V16.1353ZM17.0054 16.1353C17.8267 16.1353 18.4769 15.4828 18.4769 14.6627H16.4769C16.4769 14.5382 16.527 14.4004 16.634 14.2933C16.7409 14.1862 16.8792 14.1353 17.0054 14.1353V16.1353ZM18.4769 14.6627V14.5633H16.4769V14.6627H18.4769ZM16.0742 3.59091H3.40912V5.59091H16.0742V3.59091ZM3.40912 3.59091C2.53952 3.59091 1.85036 4.28304 1.85036 5.15045H3.85036C3.85036 5.25448 3.8078 5.36954 3.71884 5.45863C3.62983 5.54777 3.51427 5.59091 3.40912 5.59091V3.59091ZM1.85036 5.15045V13.5436H3.85036V5.15045H1.85036ZM2.85036 14.5436H16.6329V12.5436H2.85036V14.5436ZM17.6329 13.5436V5.15045H15.6329V13.5436H17.6329ZM17.6329 5.15045C17.6329 4.28298 16.9437 3.59091 16.0742 3.59091V5.59091C15.969 5.59091 15.8535 5.54778 15.7645 5.45865C15.6755 5.36957 15.6329 5.25451 15.6329 5.15045H17.6329ZM0.732852 14.2897V14.6627H2.73285V14.2897H0.732852ZM0.732852 14.6627C0.732852 15.6334 1.50506 16.4088 2.47786 16.4088V14.4088C2.53431 14.4088 2.60246 14.4332 2.65577 14.4866C2.70904 14.5399 2.73285 14.6075 2.73285 14.6627H0.732852ZM2.47786 16.4088H17.0054V14.4088H2.47786V16.4088ZM17.0054 16.4088C17.9783 16.4088 18.7504 15.6334 18.7504 14.6627H16.7504C16.7504 14.6075 16.7742 14.54 16.8275 14.4866C16.8809 14.4332 16.949 14.4088 17.0054 14.4088V16.4088ZM18.7504 14.6627V14.2897H16.7504V14.6627H18.7504ZM17.7504 13.2897H1.73285V15.2897H17.7504V13.2897Z" fill="white" mask="url(#path-3-inside-2_888_737)"/>
</svg>
