<svg width="32" height="32" viewBox="0 0 32 32" fill="none" xmlns="http://www.w3.org/2000/svg">
<g id="Group 1000004950">
<g id="Vector">
<path d="M24.4581 14.0439C24.0026 14.5014 23.6538 15.0537 23.4365 15.6611C23.2191 16.2687 23.1387 16.9166 23.2009 17.5587L23.1792 17.5371C23.2432 18.293 23.141 19.0536 22.8801 19.7661C22.6191 20.4784 22.2057 21.1253 21.6685 21.6617C21.1313 22.198 20.4833 22.611 19.7697 22.8714C19.0562 23.1319 18.2943 23.2339 17.5373 23.17L17.559 23.1916C16.6534 23.1075 15.7439 23.3042 14.9544 23.7551C14.1649 24.2059 13.5339 24.8888 13.1475 25.7109C12.7611 26.5329 12.6379 27.4538 12.7949 28.3483C12.9519 29.2426 13.3814 30.0669 14.0248 30.7087C14.6682 31.3505 15.4942 31.7785 16.3901 31.9344C17.2861 32.0904 18.2084 31.9666 19.0314 31.58C19.8543 31.1934 20.5377 30.5629 20.9886 29.7743C21.4394 28.9856 21.6357 28.0774 21.5506 27.1733L21.5735 27.1949C21.5095 26.4391 21.6116 25.6785 21.8725 24.966C22.1334 24.2537 22.547 23.6067 23.0842 23.0703C23.6214 22.534 24.2694 22.1211 24.9829 21.8607C25.6965 21.6002 26.4582 21.4982 27.2154 21.562L27.1925 21.5404C27.9322 21.6068 28.6768 21.4857 29.3572 21.1883C30.0375 20.891 30.6317 20.4269 31.0846 19.8393C31.5375 19.2516 31.8346 18.5592 31.9481 17.8265C32.0617 17.0936 31.9881 16.3441 31.7343 15.6471C31.4804 14.9502 31.0545 14.3286 30.4959 13.8399C29.9374 13.3511 29.2643 13.011 28.539 12.8512C27.8138 12.6913 27.0598 12.7168 26.3471 12.9252C25.6343 13.1338 24.9859 13.5185 24.4617 14.0439H24.4581Z" fill="#428BFA"/>
<path d="M24.4581 14.0439C24.0026 14.5014 23.6538 15.0537 23.4365 15.6611C23.2191 16.2687 23.1387 16.9166 23.2009 17.5587L23.1792 17.5371C23.2432 18.293 23.141 19.0536 22.8801 19.7661C22.6191 20.4784 22.2057 21.1253 21.6685 21.6617C21.1313 22.198 20.4833 22.611 19.7697 22.8714C19.0562 23.1319 18.2943 23.2339 17.5373 23.17L17.559 23.1916C16.6534 23.1075 15.7439 23.3042 14.9544 23.7551C14.1649 24.2059 13.5339 24.8888 13.1475 25.7109C12.7611 26.5329 12.6379 27.4538 12.7949 28.3483C12.9519 29.2426 13.3814 30.0669 14.0248 30.7087C14.6682 31.3505 15.4942 31.7785 16.3901 31.9344C17.2861 32.0904 18.2084 31.9666 19.0314 31.58C19.8543 31.1934 20.5377 30.5629 20.9886 29.7743C21.4394 28.9856 21.6357 28.0774 21.5506 27.1733L21.5735 27.1949C21.5095 26.4391 21.6116 25.6785 21.8725 24.966C22.1334 24.2537 22.547 23.6067 23.0842 23.0703C23.6214 22.534 24.2694 22.1211 24.9829 21.8607C25.6965 21.6002 26.4582 21.4982 27.2154 21.562L27.1925 21.5404C27.9322 21.6068 28.6768 21.4857 29.3572 21.1883C30.0375 20.891 30.6317 20.4269 31.0846 19.8393C31.5375 19.2516 31.8346 18.5592 31.9481 17.8265C32.0617 17.0936 31.9881 16.3441 31.7343 15.6471C31.4804 14.9502 31.0545 14.3286 30.4959 13.8399C29.9374 13.3511 29.2643 13.011 28.539 12.8512C27.8138 12.6913 27.0598 12.7168 26.3471 12.9252C25.6343 13.1338 24.9859 13.5185 24.4617 14.0439H24.4581Z" fill="url(#paint0_linear_13_2088)"/>
</g>
<g id="Vector_2">
<path d="M15.5915 20.362L15.5686 20.3404C16.212 20.4051 16.8618 20.3262 17.471 20.1095C18.0802 19.8928 18.6336 19.5437 19.091 19.0873C19.5484 18.631 19.8986 18.0787 20.116 17.4707C20.3336 16.8626 20.413 16.214 20.3487 15.5715L20.3716 15.5931C20.3076 14.8372 20.4098 14.0766 20.6706 13.3642C20.9315 12.6518 21.3451 12.0049 21.8823 11.4685C22.4195 10.9322 23.0675 10.5193 23.781 10.2589C24.4946 9.99831 25.2564 9.89639 26.0135 9.96019L25.9906 9.93859C26.8963 10.0236 27.806 9.82742 28.5959 9.3771C29.386 8.92678 30.0175 8.24412 30.4045 7.42226C30.7915 6.60042 30.9152 5.67936 30.7587 4.78473C30.6022 3.8901 30.1731 3.06547 29.5299 2.42329C28.8867 1.78112 28.0607 1.35266 27.1647 1.1964C26.2686 1.04012 25.3461 1.16361 24.5229 1.55004C23.6997 1.93646 23.0161 2.56702 22.565 3.35568C22.1139 4.14434 21.9175 5.05272 22.0026 5.95691L21.981 5.93411C22.045 6.69 21.9431 7.45074 21.6823 8.16322C21.4215 8.8757 21.0079 9.52274 20.4707 10.0592C19.9335 10.5955 19.2854 11.0084 18.5718 11.2688C17.8581 11.5292 17.0962 11.631 16.3391 11.567L16.3607 11.5898C15.7173 11.5251 15.0674 11.604 14.4583 11.8207C13.8491 12.0373 13.2958 12.3865 12.8383 12.8429C12.3808 13.2993 12.0307 13.8515 11.8132 14.4596C11.5957 15.0676 11.5163 15.7162 11.5806 16.3587L11.559 16.3371C11.6227 17.0929 11.5204 17.8535 11.2594 18.5658C10.9984 19.278 10.5849 19.9249 10.0478 20.4612C9.51056 20.9975 8.86267 21.4103 8.14924 21.671C7.43582 21.9315 6.67404 22.0336 5.91705 21.97L5.93869 21.9916C5.03305 21.9067 4.12322 22.1028 3.33329 22.5531C2.54338 23.0035 1.91182 23.6861 1.52478 24.508C1.13774 25.3299 1.01403 26.2509 1.17056 27.1455C1.32709 28.0401 1.75623 28.8648 2.39942 29.5069C3.04263 30.1491 3.86858 30.5776 4.76463 30.7338C5.66069 30.89 6.58321 30.7666 7.40639 30.3802C8.22954 29.9937 8.91329 29.3633 9.36433 28.5746C9.81542 27.7858 10.0118 26.8775 9.92672 25.9733L9.94955 25.9949C9.88561 25.239 9.98778 24.4784 10.2487 23.766C10.5095 23.0536 10.9231 22.4067 11.4603 21.8703C11.9975 21.334 12.6455 20.9211 13.359 20.6607C14.0726 20.4002 14.8344 20.2982 15.5915 20.362Z" fill="#428BFA"/>
<path d="M15.5915 20.362L15.5686 20.3404C16.212 20.4051 16.8618 20.3262 17.471 20.1095C18.0802 19.8928 18.6336 19.5437 19.091 19.0873C19.5484 18.631 19.8986 18.0787 20.116 17.4707C20.3336 16.8626 20.413 16.214 20.3487 15.5715L20.3716 15.5931C20.3076 14.8372 20.4098 14.0766 20.6706 13.3642C20.9315 12.6518 21.3451 12.0049 21.8823 11.4685C22.4195 10.9322 23.0675 10.5193 23.781 10.2589C24.4946 9.99831 25.2564 9.89639 26.0135 9.96019L25.9906 9.93859C26.8963 10.0236 27.806 9.82742 28.5959 9.3771C29.386 8.92678 30.0175 8.24412 30.4045 7.42226C30.7915 6.60042 30.9152 5.67936 30.7587 4.78473C30.6022 3.8901 30.1731 3.06547 29.5299 2.42329C28.8867 1.78112 28.0607 1.35266 27.1647 1.1964C26.2686 1.04012 25.3461 1.16361 24.5229 1.55004C23.6997 1.93646 23.0161 2.56702 22.565 3.35568C22.1139 4.14434 21.9175 5.05272 22.0026 5.95691L21.981 5.93411C22.045 6.69 21.9431 7.45074 21.6823 8.16322C21.4215 8.8757 21.0079 9.52274 20.4707 10.0592C19.9335 10.5955 19.2854 11.0084 18.5718 11.2688C17.8581 11.5292 17.0962 11.631 16.3391 11.567L16.3607 11.5898C15.7173 11.5251 15.0674 11.604 14.4583 11.8207C13.8491 12.0373 13.2958 12.3865 12.8383 12.8429C12.3808 13.2993 12.0307 13.8515 11.8132 14.4596C11.5957 15.0676 11.5163 15.7162 11.5806 16.3587L11.559 16.3371C11.6227 17.0929 11.5204 17.8535 11.2594 18.5658C10.9984 19.278 10.5849 19.9249 10.0478 20.4612C9.51056 20.9975 8.86267 21.4103 8.14924 21.671C7.43582 21.9315 6.67404 22.0336 5.91705 21.97L5.93869 21.9916C5.03305 21.9067 4.12322 22.1028 3.33329 22.5531C2.54338 23.0035 1.91182 23.6861 1.52478 24.508C1.13774 25.3299 1.01403 26.2509 1.17056 27.1455C1.32709 28.0401 1.75623 28.8648 2.39942 29.5069C3.04263 30.1491 3.86858 30.5776 4.76463 30.7338C5.66069 30.89 6.58321 30.7666 7.40639 30.3802C8.22954 29.9937 8.91329 29.3633 9.36433 28.5746C9.81542 27.7858 10.0118 26.8775 9.92672 25.9733L9.94955 25.9949C9.88561 25.239 9.98778 24.4784 10.2487 23.766C10.5095 23.0536 10.9231 22.4067 11.4603 21.8703C11.9975 21.334 12.6455 20.9211 13.359 20.6607C14.0726 20.4002 14.8344 20.2982 15.5915 20.362Z" fill="url(#paint1_linear_13_2088)"/>
</g>
<g id="Vector_3">
<path d="M7.53603 17.9535C7.99159 17.4961 8.34037 16.9438 8.55749 16.3362C8.77461 15.7287 8.8547 15.0807 8.79206 14.4386L8.81488 14.4602C8.75094 13.7042 8.85306 12.9433 9.11413 12.2307C9.3752 11.5181 9.78895 10.8711 10.3265 10.3347C10.864 9.7983 11.5122 9.3855 12.226 9.12516C12.9398 8.8648 13.702 8.76316 14.4592 8.82734L14.4364 8.80574C15.3417 8.89042 16.2512 8.69423 17.0407 8.24393C17.8303 7.79365 18.4614 7.11116 18.8483 6.28956C19.2351 5.46796 19.3587 4.54724 19.2022 3.65294C19.0457 2.75865 18.6166 1.93433 17.9737 1.29239C17.3307 0.650449 16.505 0.222137 15.6093 0.0658699C14.7136 -0.0904092 13.7914 0.0329772 12.9686 0.419169C12.1456 0.80536 11.462 1.43558 11.0111 2.22387C10.56 3.01217 10.3635 3.92018 10.4483 4.82406L10.4267 4.80246C10.4906 5.55829 10.3885 6.31895 10.1275 7.03133C9.86659 7.74372 9.45315 8.39066 8.91593 8.92702C8.37872 9.46338 7.73073 9.87623 7.01722 10.1367C6.3037 10.3972 5.54184 10.4992 4.7848 10.4354L4.80643 10.457C4.06672 10.3907 3.32223 10.512 2.64196 10.8095C1.96168 11.107 1.36762 11.5712 0.914842 12.159C0.46206 12.7466 0.165205 13.439 0.0517662 14.1718C-0.0616608 14.9046 0.012006 15.6541 0.26594 16.3509C0.519873 17.0477 0.945876 17.6692 1.50445 18.1579C2.06303 18.6466 2.73612 18.9866 3.46134 19.1465C4.18655 19.3062 4.94045 19.2806 5.65316 19.0722C6.36586 18.8636 7.01431 18.4789 7.53842 17.9535H7.53603Z" fill="#428BFA"/>
<path d="M7.53603 17.9535C7.99159 17.4961 8.34037 16.9438 8.55749 16.3362C8.77461 15.7287 8.8547 15.0807 8.79206 14.4386L8.81488 14.4602C8.75094 13.7042 8.85306 12.9433 9.11413 12.2307C9.3752 11.5181 9.78895 10.8711 10.3265 10.3347C10.864 9.7983 11.5122 9.3855 12.226 9.12516C12.9398 8.8648 13.702 8.76316 14.4592 8.82734L14.4364 8.80574C15.3417 8.89042 16.2512 8.69423 17.0407 8.24393C17.8303 7.79365 18.4614 7.11116 18.8483 6.28956C19.2351 5.46796 19.3587 4.54724 19.2022 3.65294C19.0457 2.75865 18.6166 1.93433 17.9737 1.29239C17.3307 0.650449 16.505 0.222137 15.6093 0.0658699C14.7136 -0.0904092 13.7914 0.0329772 12.9686 0.419169C12.1456 0.80536 11.462 1.43558 11.0111 2.22387C10.56 3.01217 10.3635 3.92018 10.4483 4.82406L10.4267 4.80246C10.4906 5.55829 10.3885 6.31895 10.1275 7.03133C9.86659 7.74372 9.45315 8.39066 8.91593 8.92702C8.37872 9.46338 7.73073 9.87623 7.01722 10.1367C6.3037 10.3972 5.54184 10.4992 4.7848 10.4354L4.80643 10.457C4.06672 10.3907 3.32223 10.512 2.64196 10.8095C1.96168 11.107 1.36762 11.5712 0.914842 12.159C0.46206 12.7466 0.165205 13.439 0.0517662 14.1718C-0.0616608 14.9046 0.012006 15.6541 0.26594 16.3509C0.519873 17.0477 0.945876 17.6692 1.50445 18.1579C2.06303 18.6466 2.73612 18.9866 3.46134 19.1465C4.18655 19.3062 4.94045 19.2806 5.65316 19.0722C6.36586 18.8636 7.01431 18.4789 7.53842 17.9535H7.53603Z" fill="url(#paint2_linear_13_2088)"/>
</g>
</g>
<defs>
<linearGradient id="paint0_linear_13_2088" x1="15.9678" y1="15.1234" x2="27.4343" y2="30.2495" gradientUnits="userSpaceOnUse">
<stop stop-color="#0084FF"/>
<stop offset="1" stop-color="#5348D7"/>
</linearGradient>
<linearGradient id="paint1_linear_13_2088" x1="6.10011" y1="4.79184" x2="23.7671" y2="28.1144" gradientUnits="userSpaceOnUse">
<stop stop-color="#0084FF"/>
<stop offset="1" stop-color="#5348D7"/>
</linearGradient>
<linearGradient id="paint2_linear_13_2088" x1="3.23869" y1="2.37552" x2="14.7038" y2="17.4992" gradientUnits="userSpaceOnUse">
<stop stop-color="#0084FF"/>
<stop offset="1" stop-color="#5348D7"/>
</linearGradient>
</defs>
</svg>
