<svg width="20" height="20" viewBox="0 0 20 20" fill="none" xmlns="http://www.w3.org/2000/svg">
<path d="M14.5965 6.90063V5.80682C14.5965 5.53401 14.3738 5.31213 14.1003 5.31213H13.5984V4.28426H14.075C14.4697 4.28426 14.7905 3.96403 14.7905 3.57065C14.7905 3.17713 14.4695 2.85706 14.075 2.85706L10.5065 2.85693C10.4077 2.85693 10.3276 2.93683 10.3276 3.0354V4.10596C10.3276 4.20453 10.4076 4.28443 10.5065 4.28443H12.2297V5.3123H11.7275C11.454 5.3123 11.2313 5.53432 11.2313 5.80698V6.9008C10.6742 6.97573 10.1544 7.20829 9.72711 7.57015C9.69853 6.53356 8.87989 5.69248 7.85075 5.6243V4.67013C7.85075 4.41188 7.64011 4.20181 7.38118 4.20181H7.26018V3.03545C7.26018 2.93688 7.18018 2.85698 7.08119 2.85698H5.50585C5.40701 2.85698 5.3269 2.93688 5.3269 3.03545V4.20181H5.20585C4.94691 4.20181 4.73627 4.41189 4.73627 4.67013V5.6243C3.68878 5.69375 2.85718 6.56353 2.85718 7.62565V15.6871C2.85718 16.4896 3.51183 17.1426 4.31649 17.1426H8.27053C9.03282 17.1426 9.65946 16.5565 9.72346 15.8125L9.82003 16.3466C9.90211 16.8006 10.2973 17.1302 10.76 17.1302H15.0679C15.5305 17.1302 15.9257 16.8006 16.0078 16.3466L17.0959 10.3241C17.2509 9.46679 17.0183 8.59179 16.4582 7.92336C15.9834 7.35672 15.3193 6.99784 14.5965 6.90063ZM10.6852 3.2138H14.0751C14.2724 3.2138 14.4329 3.37384 14.4329 3.5706C14.4329 3.76735 14.2722 3.9274 14.0751 3.9274L10.6852 3.92752V3.2138ZM12.5516 4.28436H13.2762V5.31222H12.5516V4.28436ZM11.589 5.80691C11.589 5.73087 11.651 5.66902 11.7274 5.66902H14.1002C14.1766 5.66902 14.2387 5.73087 14.2387 5.80691V6.87336C14.2263 6.87324 14.2142 6.87137 14.2017 6.87137H11.626C11.6135 6.87137 11.6015 6.87324 11.589 6.87336V5.80691ZM8.73189 10.3244L9.37482 13.8828C9.37446 13.8876 9.37204 13.8916 9.37204 13.8966V14.3619H3.21471V8.38593H9.05546C8.73003 8.9715 8.61061 9.65265 8.73189 10.3244ZM5.68461 3.21383H6.90218V4.20174H5.68461V3.21383ZM5.2058 4.55854H7.38103C7.44268 4.55854 7.49282 4.60857 7.49282 4.67006V5.6175H5.09398V4.67006C5.09398 4.60857 5.14403 4.55854 5.2058 4.55854ZM4.87049 5.97433H7.71632C8.62932 5.97433 9.37204 6.71508 9.37204 7.62572V7.92079L9.36982 7.92329C9.34125 7.95736 9.31725 7.99408 9.29046 8.02915L3.21487 8.02908V7.62558C3.21487 6.71508 3.95752 5.97433 4.87049 5.97433ZM8.27053 16.7857H4.31653C3.70904 16.7857 3.21502 16.2929 3.21502 15.6871V14.7187H9.37204V15.6871C9.37204 16.2929 8.87804 16.7857 8.27053 16.7857ZM16.7437 10.2608L15.6557 16.2833C15.6045 16.5673 15.3572 16.7734 15.0679 16.7734H10.7599C10.4707 16.7734 10.2235 16.5673 10.1722 16.2834L9.08411 10.2609C8.94796 9.50786 9.15225 8.73908 9.64439 8.15193C10.1366 7.56486 10.8587 7.22815 11.6261 7.22815H14.2017C14.9691 7.22815 15.6912 7.56486 16.1835 8.15208C16.6756 8.73922 16.8799 9.50772 16.7437 10.2608Z" fill="white"/>
<path d="M12.9141 8.47314C11.5392 8.47314 10.4205 9.86372 10.4205 11.5729C10.4205 13.2823 11.5392 14.6728 12.9141 14.6728C14.289 14.6728 15.4077 13.2823 15.4077 11.5729C15.4077 9.86372 14.289 8.47314 12.9141 8.47314ZM12.9141 14.3516C11.7166 14.3516 10.7426 13.1051 10.7426 11.5729C10.7426 10.0407 11.7166 8.79422 12.9141 8.79422C14.1116 8.79422 15.0856 10.0407 15.0856 11.5729C15.0855 13.1051 14.1115 14.3516 12.9141 14.3516Z" fill="white"/>
<mask id="mask0_888_255" style="mask-type:luminance" maskUnits="userSpaceOnUse" x="2" y="2" width="16" height="16">
<path d="M17.8571 2.14307H2.14282V17.8574H17.8571V2.14307Z" fill="white"/>
<path d="M14.5963 6.90112V5.80731C14.5963 5.5345 14.3737 5.31261 14.1002 5.31261H13.5983V4.28475H14.0748C14.4696 4.28475 14.7904 3.96452 14.7904 3.57114C14.7904 3.17761 14.4694 2.85754 14.0748 2.85754L10.5064 2.85742C10.4076 2.85742 10.3275 2.93732 10.3275 3.03589V4.10645C10.3275 4.20501 10.4075 4.28491 10.5064 4.28491H12.2296V5.31279H11.7274C11.4538 5.31279 11.2312 5.53481 11.2312 5.80747V6.90129C10.6741 6.97621 10.1543 7.20878 9.72698 7.57064C9.69841 6.53404 8.87977 5.69297 7.85063 5.62479V4.67061C7.85063 4.41237 7.63998 4.2023 7.38106 4.2023H7.26006V3.03594C7.26006 2.93737 7.18006 2.85747 7.08107 2.85747H5.50573C5.40689 2.85747 5.32678 2.93737 5.32678 3.03594V4.2023H5.20573C4.94678 4.2023 4.73615 4.41238 4.73615 4.67061V5.62479C3.68866 5.69424 2.85706 6.56402 2.85706 7.62614V15.6876C2.85706 16.4901 3.51171 17.1431 4.31637 17.1431H8.27041C9.0327 17.1431 9.65934 16.557 9.72334 15.813L9.81991 16.3471C9.90198 16.8011 10.2972 17.1307 10.7598 17.1307H15.0678C15.5304 17.1307 15.9256 16.8011 16.0077 16.3471L17.0958 10.3246C17.2508 9.46728 17.0182 8.59228 16.4581 7.92385C15.9833 7.35721 15.3192 6.99833 14.5963 6.90112ZM10.6851 3.21429H14.075C14.2723 3.21429 14.4328 3.37433 14.4328 3.57109C14.4328 3.76784 14.2721 3.92789 14.075 3.92789L10.6851 3.92801V3.21429ZM12.5515 4.28484H13.2761V5.31271H12.5515V4.28484ZM11.5888 5.8074C11.5888 5.73136 11.6509 5.66951 11.7273 5.66951H14.1001C14.1765 5.66951 14.2386 5.73136 14.2386 5.8074V6.87385C14.2262 6.87373 14.2141 6.87186 14.2016 6.87186H11.6259C11.6134 6.87186 11.6013 6.87373 11.5888 6.87385V5.8074ZM8.73177 10.3249L9.3747 13.8833C9.37434 13.8881 9.37191 13.8921 9.37191 13.8971V14.3624H3.21458V8.38642H9.05534C8.72991 8.97199 8.61048 9.65314 8.73177 10.3249ZM5.68449 3.21431H6.90206V4.20223H5.68449V3.21431ZM5.20568 4.55903H7.38091C7.44256 4.55903 7.4927 4.60906 7.4927 4.67054V5.61799H5.09386V4.67054C5.09386 4.60906 5.14391 4.55903 5.20568 4.55903ZM4.87036 5.97482H7.7162C8.6292 5.97482 9.37191 6.71557 9.37191 7.62621V7.92128L9.3697 7.92378C9.34113 7.95785 9.31713 7.99456 9.29034 8.02964L3.21475 8.02956V7.62606C3.21475 6.71557 3.9574 5.97482 4.87036 5.97482ZM8.27041 16.7862H4.31641C3.70892 16.7862 3.2149 16.2933 3.2149 15.6876V14.7192H9.37191V15.6876C9.37191 16.2934 8.87791 16.7862 8.27041 16.7862ZM16.7436 10.2613L15.6556 16.2838C15.6043 16.5678 15.3571 16.7738 15.0678 16.7738H10.7598C10.4706 16.7738 10.2233 16.5678 10.1721 16.2839L9.08398 10.2614C8.94784 9.50835 9.15213 8.73956 9.64427 8.15242C10.1365 7.56535 10.8586 7.22864 11.626 7.22864H14.2016C14.969 7.22864 15.6911 7.56535 16.1833 8.15256C16.6755 8.73971 16.8798 9.50821 16.7436 10.2613Z" fill="#0065FF"/>
<path d="M12.914 8.47314C11.5391 8.47314 10.4204 9.86372 10.4204 11.5729C10.4204 13.2823 11.5391 14.6728 12.914 14.6728C14.2889 14.6728 15.4076 13.2823 15.4076 11.5729C15.4076 9.86372 14.2889 8.47314 12.914 8.47314ZM12.914 14.3516C11.7165 14.3516 10.7425 13.1051 10.7425 11.5729C10.7425 10.0407 11.7165 8.79422 12.914 8.79422C14.1115 8.79422 15.0855 10.0407 15.0855 11.5729C15.0853 13.1051 14.1113 14.3516 12.914 14.3516Z" fill="#0065FF"/>
</mask>
<g mask="url(#mask0_888_255)">
<path d="M14.5964 6.90119H14.3107V7.15106L14.5583 7.18435L14.5964 6.90119ZM13.5983 5.31269H13.3126V5.5984H13.5983V5.31269ZM13.5983 4.28482V3.99911H13.3126V4.28482H13.5983ZM12.2296 4.28498H12.5153V3.99927H12.2296V4.28498ZM12.2296 5.31286V5.59857H12.5153V5.31286H12.2296ZM11.2313 6.90136L11.2693 7.18449L11.517 7.15121V6.90136H11.2313ZM9.72706 7.57071L9.44148 7.57856L9.45784 8.17299L9.9117 7.78871L9.72706 7.57071ZM7.8507 5.62486H7.56498V5.89227L7.83184 5.90995L7.8507 5.62486ZM7.26013 4.20237H6.97438V4.48808H7.26013V4.20237ZM5.32685 4.20237V4.48808H5.61256V4.20237H5.32685ZM4.73622 5.62486L4.75512 5.90995L5.02193 5.89226V5.62486H4.73622ZM9.72341 15.8131L10.0046 15.7622L9.4387 15.7886L9.72341 15.8131ZM10.6852 3.21436V2.92864H10.3995V3.21436H10.6852ZM10.6852 3.92808H10.3995V4.2138L10.6852 4.21379V3.92808ZM12.5516 4.28491V3.9992H12.2658V4.28491H12.5516ZM13.2761 4.28491H13.5618V3.9992H13.2761V4.28491ZM13.2761 5.31278V5.59849H13.5618V5.31278H13.2761ZM12.5516 5.31278H12.2658V5.59849H12.5516V5.31278ZM14.2386 6.87392L14.2357 7.15964L14.5243 7.16249V6.87392H14.2386ZM11.5889 6.87392H11.3032V7.16249L11.5918 7.15964L11.5889 6.87392ZM9.37477 13.8833L9.65963 13.9053L9.66248 13.8687L9.65591 13.8326L9.37477 13.8833ZM9.37198 14.3625V14.6482H9.6577V14.3625H9.37198ZM3.21465 14.3625H2.92894V14.6482H3.21465V14.3625ZM3.21465 8.38649V8.10078H2.92894V8.38649H3.21465ZM9.05541 8.38649L9.30513 8.52528L9.54113 8.10078H9.05541V8.38649ZM5.68456 3.21438V2.92867H5.39885V3.21438H5.68456ZM6.90213 3.21438H7.18784V2.92867H6.90213V3.21438ZM6.90213 4.2023V4.48801H7.18784V4.2023H6.90213ZM5.68456 4.2023H5.39885V4.48801H5.68456V4.2023ZM7.49277 5.61806V5.90378H7.77848V5.61806H7.49277ZM5.09393 5.61806H4.80822V5.90378H5.09393V5.61806ZM9.37198 7.92135L9.5887 8.10756L9.6577 8.02728V7.92135H9.37198ZM9.36977 7.92385L9.15305 7.73756L9.15077 7.74028L9.36977 7.92385ZM9.29041 8.02971V8.31542H9.43163L9.51734 8.20328L9.29041 8.02971ZM3.21482 8.02964H2.9291V8.31535H3.21481L3.21482 8.02964ZM3.21497 14.7193V14.4336H2.92925V14.7193H3.21497ZM9.37198 14.7193H9.6577V14.4336H9.37198V14.7193ZM14.8821 6.90119V5.80738H14.3107V6.90119H14.8821ZM14.8821 5.80738C14.8821 5.37595 14.5308 5.02697 14.1003 5.02697V5.5984C14.2168 5.5984 14.3107 5.6932 14.3107 5.80738H14.8821ZM14.1003 5.02697H13.5983V5.5984H14.1003V5.02697ZM13.8841 5.31269V4.28482H13.3126V5.31269H13.8841ZM13.5983 4.57053H14.0749V3.99911H13.5983V4.57053ZM14.0749 4.57053C14.6268 4.57053 15.0762 4.12305 15.0762 3.57121H14.5048C14.5048 3.80613 14.3125 3.99911 14.0749 3.99911V4.57053ZM15.0762 3.57121C15.0762 3.01915 14.6266 2.5719 14.0749 2.5719V3.14333C14.3124 3.14333 14.5048 3.33621 14.5048 3.57121H15.0762ZM14.0749 2.5719L10.5065 2.57178V3.14321L14.0749 3.14333V2.5719ZM10.5065 2.57178C10.2506 2.57178 10.0418 2.77886 10.0418 3.03596H10.6133C10.6133 3.09591 10.5647 3.14321 10.5065 3.14321V2.57178ZM10.0418 3.03596V4.10652H10.6133V3.03596H10.0418ZM10.0418 4.10652C10.0418 4.36348 10.2503 4.5707 10.5065 4.5707V3.99927C10.5647 3.99927 10.6133 4.04669 10.6133 4.10652H10.0418ZM10.5065 4.5707H12.2296V3.99927H10.5065V4.5707ZM11.9439 4.28498V5.31286H12.5153V4.28498H11.9439ZM12.2296 5.02714H11.7275V5.59857H12.2296V5.02714ZM11.7275 5.02714C11.2969 5.02714 10.9456 5.37631 10.9456 5.80754H11.517C11.517 5.69345 11.6109 5.59857 11.7275 5.59857V5.02714ZM10.9456 5.80754V6.90136H11.517V5.80754H10.9456ZM11.1932 6.6182C10.5816 6.70044 10.0111 6.95586 9.54241 7.35263L9.9117 7.78871C10.2977 7.46192 10.7667 7.25214 11.2693 7.18449L11.1932 6.6182ZM10.0127 7.56278C9.97998 6.37756 9.04455 5.41761 7.86963 5.33977L7.83184 5.90995C8.71513 5.96847 9.41698 6.69067 9.44148 7.57856L10.0127 7.56278ZM8.13641 5.62486V4.67068H7.56498V5.62486H8.13641ZM8.13641 4.67068C8.13641 4.25391 7.79713 3.91666 7.38113 3.91666V4.48808C7.48298 4.48808 7.56498 4.57097 7.56498 4.67068H8.13641ZM7.38113 3.91666H7.26013V4.48808H7.38113V3.91666ZM7.54584 4.20237V3.03601H6.97438V4.20237H7.54584ZM7.54584 3.03601C7.54584 2.77905 7.33727 2.57183 7.08114 2.57183V3.14326C7.0229 3.14326 6.97438 3.09583 6.97438 3.03601H7.54584ZM7.08114 2.57183H5.5058V3.14326H7.08114V2.57183ZM5.5058 2.57183C5.2499 2.57183 5.04113 2.77891 5.04113 3.03601H5.61256C5.61256 3.09596 5.56403 3.14326 5.5058 3.14326V2.57183ZM5.04113 3.03601V4.20237H5.61256V3.03601H5.04113ZM5.32685 3.91666H5.2058V4.48808H5.32685V3.91666ZM5.2058 3.91666C4.78978 3.91666 4.4505 4.25393 4.4505 4.67068H5.02193C5.02193 4.57097 5.10393 4.48808 5.2058 4.48808V3.91666ZM4.4505 4.67068V5.62486H5.02193V4.67068H4.4505ZM4.71732 5.33977C3.52198 5.41902 2.57141 6.41136 2.57141 7.62621H3.14284C3.14284 6.71683 3.85548 5.96959 4.75512 5.90995L4.71732 5.33977ZM2.57141 7.62621V15.6877H3.14284V7.62621H2.57141ZM2.57141 15.6877C2.57141 16.6487 3.35468 17.4289 4.31644 17.4289V16.8575C3.66887 16.8575 3.14284 16.3317 3.14284 15.6877H2.57141ZM4.31644 17.4289H8.27048V16.8575H4.31644V17.4289ZM8.27048 17.4289C9.1822 17.4289 9.93141 16.7282 10.0081 15.8376L9.4387 15.7886C9.38734 16.3858 8.88341 16.8575 8.27048 16.8575V17.4289ZM9.4422 15.8639L9.53884 16.3981L10.1011 16.2963L10.0046 15.7622L9.4422 15.8639ZM9.53884 16.3981C9.64563 16.9885 10.1596 17.4165 10.7599 17.4165V16.8451C10.435 16.8451 10.1586 16.6139 10.1011 16.2963L9.53884 16.3981ZM10.7599 17.4165H15.0678V16.8451H10.7599V17.4165ZM15.0678 17.4165C15.6681 17.4165 16.1822 16.9886 16.289 16.3981L15.7266 16.2963C15.6692 16.6139 15.3928 16.8451 15.0678 16.8451V17.4165ZM16.289 16.3981L17.3771 10.3755L16.8147 10.2739L15.7266 16.2963L16.289 16.3981ZM17.3771 10.3755C17.5471 9.43449 17.2916 8.47371 16.6772 7.74042L16.2392 8.10742C16.7449 8.71092 16.9546 9.50014 16.8147 10.2739L17.3771 10.3755ZM16.6772 7.74042C16.1558 7.11823 15.4268 6.72456 14.6345 6.61803L14.5583 7.18435C15.2118 7.27221 15.8109 7.59635 16.2392 8.10742L16.6772 7.74042ZM10.6852 3.50007H14.0751V2.92864H10.6852V3.50007ZM14.0751 3.50007C14.1153 3.50007 14.1471 3.53292 14.1471 3.57116H14.7186C14.7186 3.21588 14.4294 2.92864 14.0751 2.92864V3.50007ZM14.1471 3.57116C14.1471 3.60932 14.1152 3.64224 14.0751 3.64224V4.21367C14.4292 4.21367 14.7186 3.92651 14.7186 3.57116H14.1471ZM14.0751 3.64224L10.6852 3.64236V4.21379L14.0751 4.21367V3.64224ZM10.9709 3.92808V3.21436H10.3995V3.92808H10.9709ZM12.5516 4.57063H13.2761V3.9992H12.5516V4.57063ZM12.9904 4.28491V5.31278H13.5618V4.28491H12.9904ZM13.2761 5.02706H12.5516V5.59849H13.2761V5.02706ZM12.8373 5.31278V4.28491H12.2658V5.31278H12.8373ZM11.8746 5.80747C11.8746 5.89012 11.8078 5.95529 11.7273 5.95529V5.38386C11.4941 5.38386 11.3032 5.57274 11.3032 5.80747H11.8746ZM11.7273 5.95529H14.1002V5.38386H11.7273V5.95529ZM14.1002 5.95529C14.0197 5.95529 13.9529 5.89012 13.9529 5.80747H14.5243C14.5243 5.57273 14.3335 5.38386 14.1002 5.38386V5.95529ZM13.9529 5.80747V6.87392H14.5243V5.80747H13.9529ZM14.2415 6.58822C14.245 6.58826 14.2472 6.5884 14.2473 6.58841C14.2473 6.58841 14.2471 6.58839 14.2463 6.58833C14.2453 6.58826 14.2444 6.58818 14.2426 6.58804C14.2375 6.58764 14.2207 6.58621 14.2017 6.58621V7.15763C14.1978 7.15763 14.1951 7.15749 14.1946 7.15749C14.1943 7.15742 14.1946 7.15749 14.1978 7.15771C14.2001 7.15792 14.2056 7.15835 14.2115 7.15871C14.2177 7.15906 14.2261 7.15949 14.2357 7.15964L14.2415 6.58822ZM14.2017 6.58621H11.626V7.15763H14.2017V6.58621ZM11.626 6.58621C11.607 6.58621 11.5902 6.58764 11.5851 6.58804C11.5833 6.58818 11.5824 6.58826 11.5815 6.58832C11.5806 6.58838 11.5803 6.5884 11.5804 6.5884C11.5805 6.58839 11.5826 6.58826 11.5861 6.58822L11.5918 7.15964C11.6014 7.15949 11.6098 7.15913 11.6161 7.15871C11.6218 7.15835 11.6275 7.15792 11.6298 7.15771C11.6331 7.15749 11.6333 7.15742 11.6331 7.15749C11.6325 7.15749 11.6299 7.15763 11.626 7.15763V6.58621ZM11.8746 6.87392V5.80747H11.3032V6.87392H11.8746ZM8.4507 10.3757L9.09363 13.9341L9.65591 13.8326L9.01298 10.2741L8.4507 10.3757ZM9.08991 13.8613C9.09134 13.8426 9.09448 13.8278 9.09648 13.8195C9.09748 13.8154 9.09834 13.8123 9.0987 13.8111C9.09877 13.8108 9.09948 13.8084 9.0987 13.8111C9.09813 13.8131 9.09484 13.8242 9.09213 13.8379C9.0892 13.8527 9.08627 13.873 9.08627 13.8971H9.6577C9.6577 13.9188 9.65513 13.9367 9.65263 13.9492C9.65141 13.9553 9.6502 13.9603 9.64934 13.9635C9.64855 13.9666 9.64791 13.9689 9.64784 13.9691C9.64777 13.9692 9.64784 13.9692 9.64784 13.9691C9.64798 13.9686 9.64841 13.9672 9.6487 13.9661C9.64941 13.9637 9.65055 13.9594 9.65184 13.9542C9.65441 13.9436 9.65798 13.9266 9.65963 13.9053L9.08991 13.8613ZM9.08627 13.8971V14.3625H9.6577V13.8971H9.08627ZM9.37198 14.0768H3.21465V14.6482H9.37198V14.0768ZM3.50037 14.3625V8.38649H2.92894V14.3625H3.50037ZM3.21465 8.67221H9.05541V8.10078H3.21465V8.67221ZM8.8057 8.24771C8.44877 8.88978 8.31741 9.63778 8.4507 10.3757L9.01298 10.2741C8.90363 9.66864 9.01113 9.05435 9.30513 8.52528L8.8057 8.24771ZM5.68456 3.5001H6.90213V2.92867H5.68456V3.5001ZM6.61642 3.21438V4.2023H7.18784V3.21438H6.61642ZM6.90213 3.91658H5.68456V4.48801H6.90213V3.91658ZM5.97028 4.2023V3.21438H5.39885V4.2023H5.97028ZM5.20575 4.84481H7.38098V4.27338H5.20575V4.84481ZM7.38098 4.84481C7.28555 4.84481 7.20705 4.76766 7.20705 4.67061H7.77848C7.77848 4.45061 7.5997 4.27338 7.38098 4.27338V4.84481ZM7.20705 4.67061V5.61806H7.77848V4.67061H7.20705ZM7.49277 5.33235H5.09393V5.90378H7.49277V5.33235ZM5.37965 5.61806V4.67061H4.80822V5.61806H5.37965ZM5.37965 4.67061C5.37965 4.76745 5.30125 4.84481 5.20575 4.84481V4.27338C4.9867 4.27338 4.80822 4.45081 4.80822 4.67061H5.37965ZM4.87043 6.26061H7.71627V5.68918H4.87043V6.26061ZM7.71627 6.26061C8.4722 6.26061 9.08627 6.87415 9.08627 7.62628H9.6577C9.6577 6.55713 8.78634 5.68918 7.71627 5.68918V6.26061ZM9.08627 7.62628V7.92135H9.6577V7.62628H9.08627ZM9.15534 7.73514C9.15734 7.73278 9.15891 7.73099 9.15991 7.72992C9.16077 7.72892 9.16155 7.72814 9.1612 7.72849C9.16113 7.72856 9.16005 7.72978 9.15877 7.73114C9.15741 7.73264 9.15541 7.73478 9.15305 7.73756L9.58648 8.11006C9.58448 8.11235 9.58284 8.11414 9.58184 8.11528C9.58098 8.11621 9.58027 8.11699 9.58055 8.11663C9.58063 8.11663 9.5817 8.11542 9.58298 8.11406C9.58434 8.11256 9.58634 8.11028 9.5887 8.10756L9.15534 7.73514ZM9.15077 7.74028C9.12034 7.77656 9.0697 7.84799 9.06341 7.85621L9.51734 8.20328C9.56477 8.14128 9.56191 8.13949 9.5887 8.10756L9.15077 7.74028ZM9.29041 7.74399L3.21483 7.74392L3.21481 8.31535L9.29041 8.31542V7.74399ZM3.50053 8.02964V7.62613H2.9291V8.02964H3.50053ZM3.50053 7.62613C3.50053 6.87414 4.11456 6.26061 4.87043 6.26061V5.68918C3.80038 5.68918 2.9291 6.55714 2.9291 7.62613H3.50053ZM8.27048 16.5006H4.31648V17.072H8.27048V16.5006ZM4.31648 16.5006C3.86608 16.5006 3.50068 16.1349 3.50068 15.6877H2.92925C2.92925 16.4519 3.5519 17.072 4.31648 17.072V16.5006ZM3.50068 15.6877V14.7193H2.92925V15.6877H3.50068ZM3.21497 15.005H9.37198V14.4336H3.21497V15.005ZM9.08627 14.7193V15.6877H9.6577V14.7193H9.08627ZM9.08627 15.6877C9.08627 16.1349 8.72091 16.5006 8.27048 16.5006V17.072C9.03505 17.072 9.6577 16.452 9.6577 15.6877H9.08627ZM16.4625 10.2105L15.3744 16.2331L15.9368 16.3346L17.0248 10.3121L16.4625 10.2105ZM15.3744 16.2331C15.3478 16.3804 15.2196 16.4882 15.0678 16.4882V17.0596C15.4948 17.0596 15.861 16.7554 15.9368 16.3346L15.3744 16.2331ZM15.0678 16.4882H10.7598V17.0596H15.0678V16.4882ZM10.7598 16.4882C10.6083 16.4882 10.4799 16.3805 10.4533 16.2332L9.89091 16.3348C9.96691 16.7552 10.333 17.0596 10.7598 17.0596V16.4882ZM10.4533 16.2332L9.3652 10.2107L8.80291 10.3123L9.89091 16.3348L10.4533 16.2332ZM9.3652 10.2107C9.2442 9.54128 9.42555 8.85828 9.86334 8.33606L9.42541 7.96892C8.87877 8.62099 8.65163 9.47564 8.80291 10.3123L9.3652 10.2107ZM9.86334 8.33606C10.3012 7.81385 10.9431 7.51442 11.6261 7.51442V6.94297C10.7743 6.94297 9.97191 7.31706 9.42541 7.96892L9.86334 8.33606ZM11.6261 7.51442H14.2017V6.94297H11.6261V7.51442ZM14.2017 7.51442C14.8847 7.51442 15.5266 7.81385 15.9644 8.33614L16.4023 7.96906C15.8558 7.31706 15.0534 6.94297 14.2017 6.94297V7.51442ZM15.9644 8.33614C16.4022 8.85842 16.5836 9.54106 16.4625 10.2105L17.0248 10.3121C17.1761 9.47542 16.9489 8.62114 16.4023 7.96906L15.9644 8.33614ZM12.9141 8.18771C11.3264 8.18771 10.1348 9.76735 10.1348 11.5732H10.7062C10.7062 9.96056 11.7518 8.75914 12.9141 8.75914V8.18771ZM10.1348 11.5732C10.1348 13.3791 11.3264 14.9588 12.9141 14.9588V14.3874C11.7518 14.3874 10.7062 13.1859 10.7062 11.5732H10.1348ZM12.9141 14.9588C14.5017 14.9588 15.6933 13.3791 15.6933 11.5732H15.1219C15.1219 13.1859 14.0763 14.3874 12.9141 14.3874V14.9588ZM15.6933 11.5732C15.6933 9.76735 14.5017 8.18771 12.9141 8.18771V8.75914C14.0763 8.75914 15.1219 9.96056 15.1219 11.5732H15.6933ZM12.9141 14.0662C11.936 14.0662 11.0283 13.0173 11.0283 11.5731H10.4568C10.4568 13.1936 11.4972 14.6376 12.9141 14.6376V14.0662ZM11.0283 11.5731C11.0283 10.1292 11.9359 9.08021 12.9141 9.08021V8.50878C11.4971 8.50878 10.4568 9.95278 10.4568 11.5731H11.0283ZM12.9141 9.08021C13.8921 9.08021 14.7998 10.1292 14.7998 11.5731H15.3713C15.3713 9.95278 14.3309 8.50878 12.9141 8.50878V9.08021ZM14.7998 11.5731C14.7997 13.0173 13.8921 14.0662 12.9141 14.0662V14.6376C14.3308 14.6376 15.3711 13.1936 15.3713 11.5731H14.7998Z" fill="white"/>
</g>
</svg>
