<svg width="20" height="20" viewBox="0 0 20 20" fill="none" xmlns="http://www.w3.org/2000/svg">
<path d="M4.71914 10.2201L2.1004 9.61166C2.02627 9.59432 1.95644 9.56208 1.89515 9.51693C1.83386 9.47177 1.7824 9.41463 1.74387 9.34896C1.70535 9.2833 1.68058 9.21049 1.67106 9.13496C1.66155 9.05942 1.66748 8.98275 1.68852 8.90958L3.13245 4.04186C3.16801 3.90843 3.25128 3.79269 3.36648 3.71657L7.17875 1.75777C7.26932 1.69883 7.37492 1.66715 7.48298 1.6665H12.5169C12.6256 1.66723 12.732 1.69888 12.8234 1.75777L16.6334 3.71657C16.7492 3.79204 16.8326 3.90805 16.8674 4.04186L18.3113 8.90958C18.3324 8.98259 18.3384 9.05911 18.329 9.13451C18.3197 9.20992 18.2951 9.28264 18.2568 9.34827C18.2185 9.4139 18.1673 9.47109 18.1063 9.51636C18.0453 9.56163 17.9757 9.59405 17.9018 9.61166L15.283 10.2201" stroke="#F1F3F5" stroke-width="1.5" stroke-miterlimit="10"/>
<path d="M12.1822 1.68066C12.1918 1.97357 12.1424 2.26541 12.0369 2.53884C11.9314 2.81226 11.772 3.06169 11.5682 3.27227C11.3644 3.48286 11.1203 3.65032 10.8505 3.76468C10.5807 3.87904 10.2906 3.93797 9.99756 3.93797C9.7045 3.93797 9.41443 3.87904 9.14461 3.76468C8.87478 3.65032 8.6307 3.48286 8.42689 3.27227C8.22308 3.06169 8.0637 2.81226 7.95823 2.53884C7.85276 2.26541 7.80335 1.97357 7.81294 1.68066" stroke="#F1F3F5" stroke-width="1.5" stroke-miterlimit="10"/>
<path d="M3.36414 3.72363L4.71914 7.29719V15.5115C4.71832 15.9895 4.90039 16.4498 5.22805 16.7979C5.55571 17.146 6.00412 17.3556 6.48135 17.3837V17.3837C7.60792 17.59 8.75049 17.6965 9.89577 17.7019H10.1017C11.2485 17.689 12.3919 17.5747 13.5185 17.3603C13.9961 17.3328 14.4451 17.1234 14.7733 16.7753C15.1014 16.4271 15.2838 15.9665 15.283 15.4881V7.29719L16.631 3.73533" stroke="#F1F3F5" stroke-width="1.5" stroke-miterlimit="10" stroke-linecap="round"/>
</svg>
