<svg width="20" height="20" viewBox="0 0 20 20" fill="none" xmlns="http://www.w3.org/2000/svg">
<g clip-path="url(#clip0_888_552)">
<path d="M14.7976 9.43668C13.1972 9.07389 11.2434 7.72953 9.68453 6.6412C8.37503 5.72361 7.60603 5.21147 7.04481 5.12611C6.87853 5.10478 6.73304 5.16879 6.62911 5.29683C6.13028 5.93701 6.37969 6.91861 6.54598 7.38811C6.33813 7.64418 5.8185 8.11361 5.00788 8.11361C4.36355 8.11361 4.05178 7.68682 3.69843 7.17468C3.44901 6.83326 3.19959 6.47048 2.82546 6.27843C2.74232 6.23576 2.6384 6.21442 2.55526 6.23576C1.55758 6.47048 0.497542 9.62868 0.455972 11.2932C0.455972 11.3572 0.435187 11.4212 0.393617 11.4639C0.144197 11.8266 0.123413 12.1894 0.123413 12.7655C0.123413 13.3204 0.331262 13.8539 0.726177 14.2593C1.12109 14.6647 1.64072 14.8782 2.18113 14.8782H15.1925C17.6867 14.8782 19.7237 13.8539 19.8276 12.5308C19.8276 12.4668 19.8484 12.3815 19.8484 12.3175C20.0355 11.0157 19.3911 10.461 14.7976 9.43668ZM2.61761 7.28139C2.72153 7.38811 2.84625 7.55882 2.95017 7.72953C3.34508 8.28432 3.8855 9.05253 4.9871 9.05253C6.62911 9.05253 7.37738 7.75082 7.41896 7.70818C7.5021 7.58011 7.5021 7.43075 7.43974 7.28139C7.31503 6.98263 7.19031 6.51316 7.2111 6.17174C7.68917 6.40647 8.43738 6.91861 9.16488 7.43075C9.18567 7.45211 9.20646 7.45211 9.22724 7.47346L8.60367 8.58311C8.47896 8.79646 8.5621 9.07389 8.76996 9.20189C8.83231 9.24461 8.91546 9.26596 8.9986 9.26596C9.1441 9.26596 9.31038 9.18061 9.39353 9.03118L9.99631 7.96425C10.2872 8.15632 10.599 8.36968 10.89 8.56175L10.412 9.39396C10.2872 9.60739 10.3704 9.88475 10.5782 10.0128C10.6406 10.0555 10.7237 10.0768 10.8069 10.0768C10.9524 10.0768 11.1187 9.99146 11.2018 9.84211L11.6591 9.00989C11.9709 9.20189 12.2826 9.37261 12.5944 9.52203L12.1995 10.2049C12.0748 10.4182 12.158 10.6957 12.3657 10.8237C12.4281 10.8664 12.5112 10.8877 12.5944 10.8877C12.7399 10.8877 12.9062 10.8024 12.9893 10.653L13.4258 9.88475C13.8415 10.0555 14.2365 10.2049 14.6313 10.2902C17.4165 10.909 18.435 11.3145 18.8091 11.6346C17.8946 11.976 17.1671 12.04 16.0447 12.04H3.3243C2.36819 12.04 1.72386 11.784 1.37051 11.2718C1.37051 11.2718 1.34973 11.2718 1.34973 11.2505C1.41208 9.77811 2.20191 7.85753 2.61761 7.28139ZM15.1717 13.9819H2.18113C1.86935 13.9819 1.57836 13.8539 1.37051 13.6405C1.14188 13.4057 1.03795 13.107 1.03795 12.7869C1.03795 12.5522 1.03796 12.4028 1.05873 12.2961C1.49522 12.6802 2.20191 13.0216 3.34508 13.0216H16.024C17.1463 13.0216 17.957 12.9576 18.8922 12.6162C18.6636 13.1497 17.3957 13.9819 15.1717 13.9819Z" fill="white"/>
<path fill-rule="evenodd" clip-rule="evenodd" d="M7.04486 5.12601C7.60607 5.21137 8.37507 5.72351 9.68457 6.64109C11.2434 7.72943 13.1972 9.07379 14.7976 9.43657C19.3911 10.4609 20.0355 11.0156 19.8484 12.3174C19.8484 12.3494 19.8432 12.3867 19.838 12.424C19.8329 12.4614 19.8276 12.4987 19.8276 12.5307C19.7237 13.8538 17.6868 14.8781 15.1926 14.8781H2.18117C1.64076 14.8781 1.12114 14.6646 0.726222 14.2592C0.331306 13.8538 0.123457 13.3203 0.123457 12.7654C0.123457 12.1893 0.144241 11.8265 0.393661 11.4638C0.435231 11.4211 0.456016 11.3571 0.456016 11.2931C0.497586 9.62857 1.55762 6.47038 2.5553 6.23565C2.63844 6.21432 2.74236 6.23565 2.82551 6.27833C3.17766 6.45911 3.41934 6.79114 3.65451 7.11425C3.66919 7.13441 3.68383 7.1545 3.69848 7.17457C4.05182 7.68672 4.36359 8.1135 5.00793 8.1135C5.81854 8.1135 6.33817 7.64407 6.54602 7.388C6.37974 6.91851 6.13032 5.9369 6.62916 5.29672C6.73309 5.16869 6.87858 5.10467 7.04486 5.12601ZM6.40674 7.36229C6.32616 7.12217 6.23465 6.778 6.21489 6.41287C6.1933 6.01393 6.25671 5.57477 6.53133 5.22234L6.53282 5.22042C6.66159 5.06179 6.8485 4.97784 7.06076 5.00507L7.06365 5.00544C7.36929 5.05193 7.71907 5.21202 8.14779 5.46699C8.5785 5.72313 9.10179 6.08323 9.75586 6.54155C10.5356 7.0859 11.41 7.69136 12.2885 8.206C13.1683 8.72143 14.0436 9.1405 14.825 9.31764C17.1179 9.82886 18.4479 10.2271 19.1801 10.6689C19.5504 10.8922 19.7791 11.1331 19.8981 11.4152C20.0154 11.6934 20.0187 11.9949 19.9718 12.3265C19.9709 12.3644 19.9654 12.4049 19.9609 12.4367L19.9604 12.4406C19.9548 12.4804 19.9511 12.5088 19.9511 12.5307V12.5354L19.9507 12.5401C19.8939 13.2639 19.3126 13.8796 18.4627 14.3091C17.6081 14.741 16.4553 15 15.1926 15H2.18117C1.60702 15 1.05533 14.773 0.637257 14.3438C0.219373 13.9147 0 13.3506 0 12.7654C0 12.1909 0.0184778 11.7924 0.291532 11.3953L0.297425 11.3867L0.304697 11.3792C0.318748 11.3648 0.33256 11.3341 0.33256 11.2931V11.2901C0.353789 10.4401 0.633501 9.22043 1.03171 8.18493C1.23105 7.6665 1.46226 7.1885 1.70961 6.82306C1.95191 6.46502 2.22755 6.18795 2.52554 6.11729C2.64719 6.08654 2.78249 6.11882 2.88244 6.17012C3.26186 6.36489 3.51995 6.71997 3.75085 7.03765C3.76689 7.05971 3.78279 7.08159 3.79859 7.10322L3.80053 7.10587C4.15852 7.62472 4.43655 7.99157 5.00793 7.99157C5.7164 7.99157 6.18849 7.6085 6.40674 7.36229ZM2.95021 7.72943C2.87311 7.60272 2.78456 7.47607 2.70156 7.37557C2.67268 7.34064 2.64448 7.30879 2.61766 7.28129C2.59529 7.31229 2.57185 7.34714 2.5475 7.38564C2.11909 8.06272 1.40877 9.85714 1.34977 11.2504C1.34977 11.2717 1.37056 11.2717 1.37056 11.2717C1.7239 11.7839 2.36824 12.0399 3.32434 12.0399H16.0448C17.1114 12.0399 17.8213 11.9821 18.6741 11.6834C18.7186 11.6678 18.7637 11.6514 18.8091 11.6345C18.7759 11.606 18.7375 11.5769 18.6932 11.5469C18.2399 11.2406 17.1688 10.8539 14.6314 10.2901C14.2365 10.2048 13.8416 10.0554 13.4259 9.88464L12.9894 10.6529C12.9062 10.8023 12.7399 10.8876 12.5944 10.8876C12.5113 10.8876 12.4281 10.8663 12.3658 10.8236C12.158 10.6956 12.0749 10.4181 12.1996 10.2048L12.5944 9.52193C12.5575 9.50422 12.5205 9.48614 12.4835 9.46786C12.2438 9.34914 12.0041 9.21779 11.7644 9.07379C11.7293 9.05272 11.6942 9.03136 11.6591 9.00979L11.2019 9.842C11.1187 9.99136 10.9524 10.0767 10.8069 10.0767C10.7238 10.0767 10.6406 10.0554 10.5783 10.0127C10.3704 9.88464 10.2873 9.60729 10.412 9.39386L10.8901 8.56164C10.7446 8.46557 10.5939 8.36422 10.4432 8.26286C10.3278 8.18522 10.2123 8.10757 10.0992 8.03229C10.0646 8.00936 10.0304 7.98657 9.99636 7.96414L9.39357 9.03107C9.31043 9.1805 9.14414 9.26586 8.99864 9.26586C8.9155 9.26586 8.83236 9.2445 8.77 9.20179C8.56214 9.07379 8.479 8.79636 8.60371 8.583L9.22729 7.47336C9.21686 7.46264 9.2065 7.45736 9.19607 7.452C9.18571 7.44664 9.17529 7.44129 9.16493 7.43064C8.49636 6.95997 7.81021 6.48929 7.33243 6.23395C7.29029 6.21146 7.24986 6.19064 7.21114 6.17164C7.2085 6.21517 7.20821 6.26077 7.21 6.30785C7.22214 6.62999 7.33093 7.02062 7.43979 7.28129C7.50214 7.43064 7.50214 7.58 7.419 7.70807C7.41564 7.7115 7.40786 7.72293 7.39543 7.74107C7.25221 7.95029 6.49805 9.05243 4.98714 9.05243C3.89185 9.05243 3.35134 8.293 2.95701 7.73893L2.95021 7.72943ZM7.33771 6.37602C7.361 6.66324 7.45614 7.00065 7.55393 7.23479C7.62764 7.41136 7.63293 7.60443 7.52293 7.77393L7.51636 7.784L7.5125 7.78793L7.505 7.79872C7.50293 7.80172 7.50057 7.80514 7.498 7.80893C7.49093 7.81929 7.48193 7.83243 7.47157 7.84722C7.44293 7.88836 7.40236 7.94486 7.3495 8.01136C7.244 8.14436 7.08946 8.3175 6.88277 8.4895C6.46873 8.834 5.84396 9.17436 4.98714 9.17436C3.82746 9.17436 3.2533 8.36743 2.86211 7.81764C2.85779 7.81157 2.85349 7.80557 2.84922 7.79957L2.84669 7.796L2.84441 7.79222C2.77714 7.68172 2.70197 7.57307 2.63121 7.48393C2.43958 7.79664 2.18855 8.338 1.96791 8.9695C1.71836 9.68379 1.51295 10.4986 1.47542 11.2071C1.79641 11.6688 2.39004 11.918 3.32434 11.918H16.0448C17.068 11.918 17.7502 11.8644 18.5459 11.5982C18.3511 11.4814 18.0502 11.3466 17.5846 11.1898C16.9412 10.9731 15.9953 10.7181 14.6046 10.4091C14.2314 10.3284 13.8606 10.1928 13.4799 10.0386L13.0976 10.7116C13.0974 10.7118 13.0976 10.7115 13.0976 10.7116C12.9917 10.9014 12.7828 11.0096 12.5944 11.0096C12.4931 11.0096 12.385 10.9841 12.298 10.9256C12.0401 10.7649 11.9326 10.418 12.0925 10.144C12.0924 10.1441 12.0925 10.1439 12.0925 10.144L12.4222 9.57393C12.1831 9.45522 11.9441 9.32429 11.7054 9.18107L11.3101 9.90072C11.2043 10.0908 10.9954 10.1986 10.8069 10.1986C10.7056 10.1986 10.5975 10.1732 10.5105 10.1146C10.2527 9.95407 10.1451 9.60729 10.3048 9.33343C10.3047 9.33357 10.3049 9.33322 10.3048 9.33343L10.7261 8.59986C10.6102 8.52279 10.4919 8.44314 10.3739 8.36379C10.2613 8.28807 10.1489 8.21243 10.0388 8.13914L9.50171 9.08986C9.50164 9.09 9.50179 9.08972 9.50171 9.08986C9.39593 9.27964 9.18707 9.38779 8.99864 9.38779C8.89729 9.38779 8.78921 9.36236 8.70221 9.30379C8.44457 9.14329 8.33693 8.79679 8.49629 8.52293L9.06529 7.51029C8.43293 7.0654 7.79607 6.62934 7.33771 6.37602ZM2.18117 13.8599H15.1718C16.2684 13.8599 17.124 13.6546 17.73 13.3876C18.1153 13.2179 18.3925 13.0266 18.5691 12.8522C17.7599 13.0949 17.0056 13.1435 16.024 13.1435H3.34513C2.32119 13.1435 1.62908 12.8752 1.16298 12.5362C1.16155 12.6044 1.16145 12.6864 1.16145 12.7868C1.16145 13.0799 1.256 13.3469 1.45952 13.5558C1.64471 13.7459 1.90384 13.8599 2.18117 13.8599ZM1.04269 12.4432C1.04571 12.3859 1.05066 12.3377 1.05878 12.296C1.09416 12.3271 1.13132 12.358 1.17034 12.3884C1.6127 12.7332 2.29462 13.0215 3.34513 13.0215H16.024C17.0761 13.0215 17.8542 12.9653 18.718 12.677C18.7756 12.6578 18.8337 12.6375 18.8923 12.6161C18.87 12.6681 18.8379 12.7229 18.7959 12.7796C18.4074 13.3039 17.1789 13.9818 15.1718 13.9818H2.18117C1.86939 13.9818 1.57841 13.8538 1.37056 13.6404C1.14192 13.4056 1.03799 13.1069 1.03799 12.7868C1.03799 12.6438 1.038 12.5325 1.04269 12.4432Z" fill="white"/>
</g>
<defs>
<clipPath id="clip0_888_552">
<rect width="20" height="20" fill="white"/>
</clipPath>
</defs>
</svg>
