<svg width="20" height="20" viewBox="0 0 20 20" fill="none" xmlns="http://www.w3.org/2000/svg">
<path d="M16.8891 8.04607C16.6093 7.76942 16.2275 7.62085 15.8343 7.63542C15.8488 7.23992 15.6988 6.85605 15.4199 6.57521L12.3385 3.49169C11.5321 2.68294 10.4532 2.20404 9.31244 2.14852C8.1718 2.09287 7.05146 2.46457 6.17025 3.19097C6.04842 3.30882 5.93735 3.43709 5.83807 3.57436C5.70677 3.74144 5.73226 3.98277 5.89572 4.11863C6.1285 4.29903 6.42197 4.38263 6.71497 4.35177C7.2313 4.25847 7.76387 4.33879 8.22973 4.58011C8.91066 4.98969 9.24487 5.34641 9.22859 5.64291L9.1348 5.73562C8.88266 5.99227 8.73544 6.33377 8.72187 6.69331C8.7083 7.05284 8.82944 7.40457 9.06152 7.67942L9.21023 7.82871L2.19286 13.9494C1.73383 14.3493 1.45862 14.9196 1.4309 15.5279C1.40319 16.1361 1.62557 16.7291 2.04634 17.1691C2.46715 17.6091 3.04964 17.8579 3.65842 17.8574H3.73382C4.35047 17.8357 4.93059 17.5598 5.33667 17.0953L11.4582 10.0737L11.6866 10.3026C11.9564 10.5716 12.3221 10.7224 12.7033 10.7216C12.7154 10.7216 12.7269 10.7191 12.7389 10.7185C12.7389 10.7321 12.7353 10.7451 12.7353 10.7589C12.7334 11.1399 12.8843 11.5056 13.1542 11.7745L13.7524 12.3659C14.0219 12.6318 14.3853 12.781 14.7639 12.781C15.1424 12.781 15.5058 12.6318 15.7753 12.3659L17.4824 10.6693C17.7527 10.4003 17.9047 10.0346 17.9047 9.65314C17.9047 9.27178 17.7527 8.90607 17.4824 8.63699L16.8891 8.04607ZM4.74331 16.5765C4.48164 16.8811 4.10469 17.0629 3.70344 17.0779C3.30206 17.0931 2.91259 16.9402 2.62872 16.6561C2.34484 16.372 2.19227 15.9824 2.20771 15.5811C2.22314 15.1798 2.40507 14.8031 2.70999 14.5416L9.77166 8.38535L10.3075 8.92071L10.9036 9.51678L4.74331 16.5765ZM13.4608 9.45285L13.1664 9.74771C13.1522 9.75699 13.1384 9.76742 13.1254 9.77871C13.0017 9.88671 12.8414 9.94378 12.6772 9.93814C12.5129 9.93242 12.3569 9.86464 12.2409 9.74828L10.0666 7.57407C10.0666 7.5715 10.0603 7.57042 10.0572 7.56771L9.64909 7.16028C9.54887 7.03578 9.49802 6.87862 9.5063 6.71903C9.51452 6.55944 9.58116 6.40849 9.69352 6.29485L9.87159 6.11724C9.91844 6.07083 9.95287 6.01319 9.97123 5.9497C10.2797 4.89848 9.04402 4.15523 8.63759 3.91051C8.19544 3.65609 7.69194 3.52808 7.18194 3.54023C7.12959 3.54023 7.07464 3.54023 7.02482 3.54339C7.75652 3.07044 8.62823 2.86281 9.49466 2.95529C10.3609 3.04778 11.1692 3.43479 11.7846 4.05153L14.8687 7.13445C14.9824 7.24692 15.0505 7.39742 15.0602 7.55714C15.0698 7.71671 15.0204 7.87435 14.9211 7.99978L13.4963 9.41342C13.4842 9.42549 13.4728 9.43821 13.4623 9.45164L13.4608 9.45285ZM16.9253 10.1129L15.2192 11.8074C15.0973 11.9279 14.9327 11.9955 14.7612 11.9955C14.5897 11.9955 14.4251 11.9279 14.3031 11.8074L13.7096 11.2176C13.587 11.0967 13.5185 10.9317 13.519 10.7598C13.5182 10.6227 13.5622 10.4892 13.6442 10.3796L13.6689 10.3549L14.0518 9.97149L15.4566 8.56714C15.5808 8.46278 15.7393 8.40849 15.9014 8.41492C16.0634 8.42135 16.2173 8.48785 16.3328 8.60164L16.9278 9.19349C17.05 9.31485 17.1188 9.48014 17.1188 9.65235C17.1188 9.82471 17.0501 9.98978 16.9279 10.1113L16.9253 10.1129Z" fill="white"/>
<mask id="mask0_888_345" style="mask-type:luminance" maskUnits="userSpaceOnUse" x="0" y="1" width="19" height="18">
<path d="M18.5714 1.42871H0.714294V18.5716H18.5714V1.42871Z" fill="white" stroke="#050414" stroke-width="0.4"/>
<path d="M16.8891 8.04607C16.6093 7.76942 16.2275 7.62085 15.8343 7.63542C15.8488 7.23992 15.6988 6.85605 15.4199 6.57521L12.3385 3.49169C11.5321 2.68294 10.4532 2.20404 9.31244 2.14852C8.1718 2.09287 7.05146 2.46457 6.17025 3.19097C6.04842 3.30882 5.93735 3.43709 5.83807 3.57436C5.70677 3.74144 5.73226 3.98277 5.89572 4.11863C6.1285 4.29903 6.42197 4.38263 6.71497 4.35177C7.2313 4.25847 7.76387 4.33879 8.22973 4.58011C8.91066 4.98969 9.24487 5.34641 9.22859 5.64291L9.1348 5.73562C8.88266 5.99227 8.73544 6.33377 8.72187 6.69331C8.7083 7.05284 8.82944 7.40457 9.06152 7.67942L9.21023 7.82871L2.19286 13.9494C1.73383 14.3493 1.45862 14.9196 1.4309 15.5279C1.40319 16.1361 1.62557 16.7291 2.04634 17.1691C2.46715 17.6091 3.04964 17.8579 3.65842 17.8574H3.73382C4.35047 17.8357 4.93059 17.5598 5.33667 17.0953L11.4582 10.0737L11.6866 10.3026C11.9564 10.5716 12.3221 10.7224 12.7033 10.7216C12.7154 10.7216 12.7269 10.7191 12.7389 10.7185C12.7389 10.7321 12.7353 10.7451 12.7353 10.7589C12.7334 11.1399 12.8843 11.5056 13.1542 11.7745L13.7524 12.3659C14.0219 12.6318 14.3853 12.781 14.7639 12.781C15.1424 12.781 15.5058 12.6318 15.7753 12.3659L17.4824 10.6693C17.7527 10.4003 17.9047 10.0346 17.9047 9.65314C17.9047 9.27178 17.7527 8.90607 17.4824 8.63699L16.8891 8.04607ZM4.74331 16.5765C4.48164 16.8811 4.10469 17.0629 3.70344 17.0779C3.30206 17.0931 2.91259 16.9402 2.62872 16.6561C2.34484 16.372 2.19227 15.9824 2.20771 15.5811C2.22314 15.1798 2.40507 14.8031 2.70999 14.5416L9.77166 8.38535L10.3075 8.92071L10.9036 9.51678L4.74331 16.5765ZM13.4608 9.45285L13.1664 9.74771C13.1522 9.75699 13.1384 9.76742 13.1254 9.77871C13.0017 9.88671 12.8414 9.94378 12.6772 9.93814C12.5129 9.93242 12.3569 9.86464 12.2409 9.74828L10.0666 7.57407C10.0666 7.57149 10.0603 7.57042 10.0572 7.56771L9.64909 7.16028C9.54887 7.03578 9.49802 6.87862 9.5063 6.71903C9.51452 6.55944 9.58116 6.4085 9.69352 6.29485L9.87159 6.11725C9.91844 6.07083 9.95287 6.01319 9.97123 5.9497C10.2797 4.89848 9.04402 4.15523 8.63759 3.91051C8.19544 3.65609 7.69194 3.52808 7.18194 3.54023C7.12959 3.54023 7.07464 3.54023 7.02482 3.54339C7.75652 3.07044 8.62823 2.86281 9.49466 2.95529C10.3609 3.04778 11.1692 3.43479 11.7846 4.05153L14.8687 7.13445C14.9824 7.24692 15.0505 7.39742 15.0602 7.55714C15.0698 7.71671 15.0204 7.87435 14.9211 7.99978L13.4963 9.41342C13.4842 9.42549 13.4728 9.43821 13.4623 9.45164L13.4608 9.45285ZM16.9253 10.1129L15.2192 11.8074C15.0973 11.9279 14.9327 11.9955 14.7612 11.9955C14.5897 11.9955 14.4251 11.9279 14.3031 11.8074L13.7096 11.2176C13.587 11.0967 13.5185 10.9317 13.519 10.7598C13.5182 10.6227 13.5622 10.4892 13.6442 10.3796L13.6689 10.3549L14.0518 9.97149L15.4566 8.56714C15.5808 8.46278 15.7393 8.40849 15.9014 8.41492C16.0634 8.42135 16.2173 8.48785 16.3328 8.60164L16.9278 9.19349C17.05 9.31485 17.1188 9.48014 17.1188 9.65235C17.1188 9.82471 17.0501 9.98978 16.9279 10.1113L16.9253 10.1129Z" stroke="#0065FF" stroke-width="0.4"/>
</mask>
<g mask="url(#mask0_888_345)">
<path d="M16.8891 8.04607C16.6093 7.76942 16.2275 7.62085 15.8343 7.63542C15.8488 7.23992 15.6988 6.85605 15.4199 6.57521L12.3385 3.49169C11.5321 2.68294 10.4532 2.20404 9.31244 2.14852C8.1718 2.09287 7.05146 2.46457 6.17025 3.19097C6.04842 3.30882 5.93735 3.43709 5.83807 3.57436C5.70677 3.74144 5.73226 3.98277 5.89572 4.11863C6.1285 4.29903 6.42197 4.38263 6.71497 4.35177C7.2313 4.25847 7.76387 4.33879 8.22973 4.58011C8.91066 4.98969 9.24487 5.34641 9.22859 5.64291L9.1348 5.73562C8.88266 5.99227 8.73544 6.33377 8.72187 6.69331C8.7083 7.05284 8.82944 7.40457 9.06152 7.67942L9.21023 7.82871L2.19286 13.9494C1.73383 14.3493 1.45862 14.9196 1.4309 15.5279C1.40319 16.1361 1.62557 16.7291 2.04634 17.1691C2.46715 17.6091 3.04964 17.8579 3.65842 17.8574H3.73382C4.35047 17.8357 4.93059 17.5598 5.33667 17.0953L11.4582 10.0737L11.6866 10.3026C11.9564 10.5716 12.3221 10.7224 12.7033 10.7216C12.7154 10.7216 12.7269 10.7191 12.7389 10.7185C12.7389 10.7321 12.7353 10.7451 12.7353 10.7589C12.7334 11.1399 12.8843 11.5056 13.1542 11.7745L13.7524 12.3659C14.0219 12.6318 14.3853 12.781 14.7639 12.781C15.1424 12.781 15.5058 12.6318 15.7753 12.3659L17.4824 10.6693C17.7527 10.4003 17.9047 10.0346 17.9047 9.65314C17.9047 9.27178 17.7527 8.90607 17.4824 8.63699L16.8891 8.04607ZM4.74331 16.5765C4.48164 16.8811 4.10469 17.0629 3.70344 17.0779C3.30206 17.0931 2.91259 16.9402 2.62872 16.6561C2.34484 16.372 2.19227 15.9824 2.20771 15.5811C2.22314 15.1798 2.40507 14.8031 2.70999 14.5416L9.77166 8.38535L10.3075 8.92071L10.9036 9.51678L4.74331 16.5765ZM13.4608 9.45285L13.1664 9.74771C13.1522 9.75699 13.1384 9.76742 13.1254 9.77871C13.0017 9.88671 12.8414 9.94378 12.6772 9.93814C12.5129 9.93242 12.3569 9.86464 12.2409 9.74828L10.0666 7.57407C10.0666 7.57149 10.0603 7.57042 10.0572 7.56771L9.64909 7.16028C9.54887 7.03578 9.49802 6.87862 9.5063 6.71903C9.51452 6.55944 9.58116 6.4085 9.69352 6.29485L9.87159 6.11725C9.91844 6.07083 9.95287 6.01319 9.97123 5.9497C10.2797 4.89848 9.04402 4.15523 8.63759 3.91051C8.19544 3.65609 7.69194 3.52808 7.18194 3.54023C7.12959 3.54023 7.07464 3.54023 7.02482 3.54339C7.75652 3.07044 8.62823 2.86281 9.49466 2.95529C10.3609 3.04778 11.1692 3.43479 11.7846 4.05153L14.8687 7.13445C14.9824 7.24692 15.0505 7.39742 15.0602 7.55714C15.0698 7.71671 15.0204 7.87435 14.9211 7.99978L13.4963 9.41342C13.4842 9.42549 13.4728 9.43821 13.4623 9.45164L13.4608 9.45285ZM16.9253 10.1129L15.2192 11.8074C15.0973 11.9279 14.9327 11.9955 14.7612 11.9955C14.5897 11.9955 14.4251 11.9279 14.3031 11.8074L13.7096 11.2176C13.587 11.0967 13.5185 10.9317 13.519 10.7598C13.5182 10.6227 13.5622 10.4892 13.6442 10.3796L13.6689 10.3549L14.0518 9.97149L15.4566 8.56714C15.5808 8.46278 15.7393 8.40849 15.9014 8.41492C16.0634 8.42135 16.2173 8.48785 16.3328 8.60164L16.9278 9.19349C17.05 9.31485 17.1188 9.48014 17.1188 9.65235C17.1188 9.82471 17.0501 9.98978 16.9279 10.1113L16.9253 10.1129Z" stroke="white" stroke-width="0.4"/>
</g>
</svg>
