<svg width="20" height="20" viewBox="0 0 20 20" fill="none" xmlns="http://www.w3.org/2000/svg">
<g clip-path="url(#clip0_888_1307)">
<path d="M7.5 11.6665L7.5 14.9998" stroke="white" stroke-width="1.5" stroke-linecap="round" stroke-linejoin="round"/>
<path d="M12.5 11.6665L12.5 14.9998" stroke="white" stroke-width="1.5" stroke-linecap="round" stroke-linejoin="round"/>
<path d="M5 4.99984V3.33317C5 2.4127 5.74619 1.6665 6.66667 1.6665H13.3333C14.2538 1.6665 15 2.4127 15 3.33317V4.99984" stroke="white" stroke-width="1.5" stroke-linecap="round" stroke-linejoin="round"/>
<path d="M2.15565 8.33333H17.8443M15.0292 5L4.97068 5C2.87832 5 1.31324 6.93854 1.73589 9.00666L3.09833 15.6733C3.41485 17.2221 4.76614 18.3333 6.33311 18.3333H13.6668C15.2338 18.3333 16.5851 17.2221 16.9016 15.6733L18.264 9.00666C18.6867 6.93853 17.1216 5 15.0292 5Z" stroke="white" stroke-width="1.5" stroke-linecap="round" stroke-linejoin="round"/>
</g>
<defs>
<clipPath id="clip0_888_1307">
<rect width="20" height="20" fill="white"/>
</clipPath>
</defs>
</svg>
