<svg width="20" height="20" viewBox="0 0 20 20" fill="none" xmlns="http://www.w3.org/2000/svg">
<path d="M3.33334 4.99984H16.6667M15.8333 8.33317V13.3332C15.8333 14.2536 15.0871 14.9998 14.1667 14.9998H13.75M4.16667 8.33317V13.3332C4.16667 14.2536 4.91287 14.9998 5.83334 14.9998H6.25001M10.8333 11.6665L8.33334 14.9998H11.6667L9.16667 18.3332M4.3634 8.33317H15.6366C16.8756 8.33317 17.6814 7.02932 17.1273 5.92115L15.4607 2.58781C15.1783 2.02317 14.6012 1.6665 13.97 1.6665H6.03006C5.39878 1.6665 4.82167 2.02317 4.53935 2.58781L2.87269 5.92115C2.3186 7.02932 3.12443 8.33317 4.3634 8.33317ZM8.50001 1.6665H11.5L12.5 8.33317H7.50001L8.50001 1.6665Z" stroke="white" stroke-width="1.5" stroke-linecap="round" stroke-linejoin="round"/>
</svg>
