<svg width="14" height="14" viewBox="0 0 14 14" fill="none" xmlns="http://www.w3.org/2000/svg">
<path d="M5.85249 1.90841C6.32189 0.91953 7.67814 0.919528 8.14755 1.9084L8.95879 3.61743C9.14519 4.01012 9.5055 4.28229 9.9223 4.34526L11.7363 4.61932C12.7859 4.77789 13.205 6.11898 12.4455 6.88871L11.1329 8.21901C10.8313 8.52467 10.6937 8.96506 10.7649 9.39666L11.0747 11.2751C11.254 12.3619 10.1568 13.1908 9.21799 12.6776L7.5955 11.7908C7.2227 11.587 6.77734 11.587 6.40454 11.7908L4.78205 12.6776C3.84325 13.1908 2.74602 12.3619 2.92531 11.2751L3.23518 9.39666C3.30638 8.96506 3.16875 8.52467 2.86715 8.21901L1.55453 6.88871C0.795026 6.11898 1.21413 4.77789 2.26374 4.61932L4.07774 4.34526C4.49454 4.28229 4.85485 4.01012 5.04125 3.61744L5.85249 1.90841Z" fill="#F4BE50"/>
</svg>
