<svg width="20" height="20" viewBox="0 0 20 20" fill="none" xmlns="http://www.w3.org/2000/svg">
<path d="M15.2022 3.57129H5.06539C4.53824 3.57129 4.03268 3.79781 3.65993 4.20102C3.28718 4.60422 3.07777 5.15109 3.07777 5.72131V7.29086H2.73988C2.26235 7.306 1.8041 7.498 1.44166 7.83465C1.07922 8.17136 0.834523 8.63229 0.748451 9.14065C0.662376 9.64893 0.74013 10.1739 0.968723 10.6276C1.19732 11.0814 1.56292 11.4366 2.00447 11.6339V13.0959C2.00422 13.4525 2.10775 13.8002 2.30039 14.0896C2.49304 14.3791 2.76502 14.5956 3.07777 14.7084V15.9984C3.07777 16.1125 3.11966 16.2219 3.19421 16.3025C3.26876 16.3831 3.36987 16.4284 3.47529 16.4284C3.58073 16.4284 3.68184 16.3831 3.75639 16.3025C3.83094 16.2219 3.87282 16.1125 3.87282 15.9984V14.8159H16.3948V15.9124C16.3948 16.0265 16.4367 16.1359 16.5112 16.2165C16.5857 16.2971 16.6869 16.3424 16.7923 16.3424C16.8977 16.3424 16.9989 16.2971 17.0734 16.2165C17.1479 16.1359 17.1898 16.0265 17.1898 15.9124V14.7084C17.5026 14.5956 17.7746 14.3791 17.9672 14.0896C18.1599 13.8002 18.2634 13.4525 18.2631 13.0959V11.6339C18.7169 11.4451 19.0956 11.0908 19.3337 10.6322C19.5718 10.1736 19.6544 9.63943 19.5672 9.122C19.48 8.60457 19.2285 8.13629 18.8561 7.798C18.4838 7.45979 18.0139 7.27279 17.5277 7.26936H17.1898V5.72131C17.1898 5.15109 16.9804 4.60422 16.6077 4.20102C16.2349 3.79781 15.7294 3.57129 15.2022 3.57129ZM3.87282 5.72131C3.87282 5.37918 3.99847 5.05106 4.22212 4.80913C4.44577 4.56721 4.7491 4.4313 5.06539 4.4313H15.2022C15.5185 4.4313 15.8219 4.56721 16.0455 4.80913C16.2691 5.05106 16.3948 5.37918 16.3948 5.72131V7.59186C16.256 7.68043 16.129 7.78893 16.0172 7.91436C15.7807 8.14943 15.6029 8.44522 15.5004 8.77436H4.76724C4.66463 8.44522 4.48688 8.14943 4.25047 7.91436C4.13859 7.78893 4.01155 7.68043 3.87282 7.59186V5.72131ZM4.8865 9.63436H15.3811V11.3114H4.8865V9.63436ZM18.76 9.39786C18.7924 9.73665 18.7092 10.0765 18.5262 10.3536C18.3432 10.6308 18.0729 10.8261 17.7662 10.9029C17.6821 10.9264 17.6074 10.979 17.5535 11.0528C17.4997 11.1266 17.4697 11.2174 17.4681 11.3114V13.0959C17.4681 13.324 17.3843 13.5427 17.2352 13.704C17.0861 13.8653 16.8839 13.9559 16.673 13.9559H3.59455C3.38369 13.9559 3.18147 13.8653 3.03237 13.704C2.88327 13.5427 2.79951 13.324 2.79951 13.0959V11.3114C2.79792 11.2174 2.76791 11.1266 2.71406 11.0528C2.66022 10.979 2.58551 10.9264 2.50137 10.9029C2.17994 10.8419 1.89174 10.6517 1.69465 10.3704C1.49757 10.089 1.40621 9.73743 1.43893 9.38622C1.47165 9.035 1.62602 8.71022 1.87104 8.477C2.11605 8.24386 2.43355 8.11965 2.75976 8.12936H2.79951C2.96483 8.12679 3.12899 8.15965 3.2825 8.22607C3.43602 8.2925 3.57585 8.39115 3.69394 8.51636C3.81984 8.647 3.91998 8.80393 3.9883 8.97757C4.05662 9.15129 4.09172 9.33808 4.09146 9.52686V11.7414C4.09146 11.8554 4.13334 11.9648 4.20789 12.0454C4.28244 12.1261 4.38355 12.1714 4.48898 12.1714H15.7787C15.8841 12.1714 15.9852 12.1261 16.0597 12.0454C16.1342 11.9648 16.1762 11.8554 16.1762 11.7414V9.52686C16.1683 9.34336 16.1939 9.15993 16.2517 8.98715C16.3094 8.81436 16.3979 8.6555 16.5124 8.51979C16.7435 8.24557 17.0658 8.08193 17.4084 8.06486C17.7511 8.04772 18.086 8.17858 18.3394 8.42858C18.5929 8.67858 18.7442 9.02722 18.76 9.39786Z" fill="white"/>
<mask id="mask0_888_1498" style="mask-type:luminance" maskUnits="userSpaceOnUse" x="-1" y="2" width="22" height="16">
<path d="M20 2.85693H0V17.1426H20V2.85693Z" fill="white" stroke="#0065FF" stroke-width="0.6"/>
<path d="M15.2022 3.57129H5.06539C4.53824 3.57129 4.03268 3.79781 3.65993 4.20102C3.28718 4.60422 3.07777 5.15109 3.07777 5.72131V7.29086H2.73988C2.26235 7.306 1.8041 7.498 1.44166 7.83465C1.07922 8.17136 0.834523 8.63229 0.748451 9.14065C0.662376 9.64893 0.74013 10.1739 0.968723 10.6276C1.19732 11.0814 1.56292 11.4366 2.00447 11.6339V13.0959C2.00422 13.4525 2.10775 13.8002 2.30039 14.0896C2.49304 14.3791 2.76502 14.5956 3.07777 14.7084V15.9984C3.07777 16.1125 3.11966 16.2219 3.19421 16.3025C3.26876 16.3831 3.36987 16.4284 3.47529 16.4284C3.58073 16.4284 3.68184 16.3831 3.75639 16.3025C3.83094 16.2219 3.87282 16.1125 3.87282 15.9984V14.8159H16.3948V15.9124C16.3948 16.0265 16.4367 16.1359 16.5112 16.2165C16.5857 16.2971 16.6869 16.3424 16.7923 16.3424C16.8977 16.3424 16.9989 16.2971 17.0734 16.2165C17.1479 16.1359 17.1898 16.0265 17.1898 15.9124V14.7084C17.5026 14.5956 17.7746 14.3791 17.9672 14.0896C18.1599 13.8002 18.2634 13.4525 18.2632 13.0959V11.6339C18.7169 11.4451 19.0956 11.0908 19.3337 10.6322C19.5718 10.1736 19.6544 9.63943 19.5671 9.122C19.48 8.60457 19.2285 8.13629 18.8562 7.798C18.4838 7.45979 18.0139 7.27279 17.5277 7.26936H17.1898V5.72131C17.1898 5.15109 16.9804 4.60422 16.6077 4.20102C16.2349 3.79781 15.7294 3.57129 15.2022 3.57129ZM3.87282 5.72131C3.87282 5.37918 3.99847 5.05106 4.22212 4.80913C4.44577 4.56721 4.7491 4.4313 5.06539 4.4313H15.2022C15.5185 4.4313 15.8219 4.56721 16.0455 4.80913C16.2692 5.05106 16.3948 5.37918 16.3948 5.72131V7.59186C16.256 7.68043 16.129 7.78893 16.0172 7.91436C15.7807 8.14943 15.6029 8.44522 15.5004 8.77436H4.76724C4.66463 8.44522 4.48688 8.14943 4.25047 7.91436C4.13859 7.78893 4.01155 7.68043 3.87282 7.59186V5.72131ZM4.8865 9.63436H15.3811V11.3114H4.8865V9.63436ZM18.76 9.39786C18.7924 9.73665 18.7092 10.0765 18.5262 10.3536C18.3432 10.6308 18.0729 10.8261 17.7662 10.9029C17.6821 10.9264 17.6074 10.979 17.5535 11.0528C17.4997 11.1266 17.4697 11.2174 17.4681 11.3114V13.0959C17.4681 13.324 17.3843 13.5427 17.2352 13.704C17.0862 13.8653 16.8839 13.9559 16.673 13.9559H3.59455C3.38369 13.9559 3.18147 13.8653 3.03237 13.704C2.88327 13.5427 2.79951 13.324 2.79951 13.0959V11.3114C2.79792 11.2174 2.76791 11.1266 2.71406 11.0528C2.66022 10.979 2.58551 10.9264 2.50137 10.9029C2.17994 10.8419 1.89174 10.6517 1.69465 10.3704C1.49757 10.089 1.40621 9.73743 1.43893 9.38622C1.47165 9.035 1.62602 8.71022 1.87104 8.477C2.11605 8.24386 2.43355 8.11965 2.75976 8.12936H2.79951C2.96483 8.12679 3.12899 8.15965 3.2825 8.22607C3.43602 8.2925 3.57585 8.39115 3.69394 8.51636C3.81984 8.647 3.91998 8.80393 3.9883 8.97757C4.05662 9.15129 4.09172 9.33807 4.09146 9.52686V11.7414C4.09146 11.8554 4.13334 11.9648 4.20789 12.0454C4.28244 12.1261 4.38355 12.1714 4.48898 12.1714H15.7787C15.8841 12.1714 15.9852 12.1261 16.0597 12.0454C16.1342 11.9648 16.1762 11.8554 16.1762 11.7414V9.52686C16.1683 9.34336 16.1939 9.15993 16.2517 8.98715C16.3094 8.81436 16.3979 8.6555 16.5124 8.51979C16.7435 8.24558 17.0658 8.08193 17.4084 8.06486C17.7511 8.04772 18.086 8.17858 18.3394 8.42858C18.5929 8.67858 18.7442 9.02722 18.76 9.39786Z" stroke="#0065FF" stroke-width="0.6"/>
</mask>
<g mask="url(#mask0_888_1498)">
<path d="M15.2022 3.57129H5.06539C4.53824 3.57129 4.03268 3.79781 3.65993 4.20102C3.28718 4.60422 3.07777 5.15109 3.07777 5.72131V7.29086H2.73988C2.26235 7.306 1.8041 7.498 1.44166 7.83465C1.07922 8.17136 0.834523 8.63229 0.748451 9.14065C0.662376 9.64893 0.74013 10.1739 0.968723 10.6276C1.19732 11.0814 1.56292 11.4366 2.00447 11.6339V13.0959C2.00422 13.4525 2.10775 13.8002 2.30039 14.0896C2.49304 14.3791 2.76502 14.5956 3.07777 14.7084V15.9984C3.07777 16.1125 3.11966 16.2219 3.19421 16.3025C3.26876 16.3831 3.36987 16.4284 3.47529 16.4284C3.58073 16.4284 3.68184 16.3831 3.75639 16.3025C3.83094 16.2219 3.87282 16.1125 3.87282 15.9984V14.8159H16.3948V15.9124C16.3948 16.0265 16.4367 16.1359 16.5112 16.2165C16.5857 16.2971 16.6869 16.3424 16.7923 16.3424C16.8977 16.3424 16.9989 16.2971 17.0734 16.2165C17.1479 16.1359 17.1898 16.0265 17.1898 15.9124V14.7084C17.5026 14.5956 17.7746 14.3791 17.9672 14.0896C18.1599 13.8002 18.2634 13.4525 18.2632 13.0959V11.6339C18.7169 11.4451 19.0956 11.0908 19.3337 10.6322C19.5718 10.1736 19.6544 9.63943 19.5671 9.122C19.48 8.60457 19.2285 8.13629 18.8562 7.798C18.4838 7.45979 18.0139 7.27279 17.5277 7.26936H17.1898V5.72131C17.1898 5.15109 16.9804 4.60422 16.6077 4.20102C16.2349 3.79781 15.7294 3.57129 15.2022 3.57129ZM3.87282 5.72131C3.87282 5.37918 3.99847 5.05106 4.22212 4.80913C4.44577 4.56721 4.7491 4.4313 5.06539 4.4313H15.2022C15.5185 4.4313 15.8219 4.56721 16.0455 4.80913C16.2692 5.05106 16.3948 5.37918 16.3948 5.72131V7.59186C16.256 7.68043 16.129 7.78893 16.0172 7.91436C15.7807 8.14943 15.6029 8.44522 15.5004 8.77436H4.76724C4.66463 8.44522 4.48688 8.14943 4.25047 7.91436C4.13859 7.78893 4.01155 7.68043 3.87282 7.59186V5.72131ZM4.8865 9.63436H15.3811V11.3114H4.8865V9.63436ZM18.76 9.39786C18.7924 9.73665 18.7092 10.0765 18.5262 10.3536C18.3432 10.6308 18.0729 10.8261 17.7662 10.9029C17.6821 10.9264 17.6074 10.979 17.5535 11.0528C17.4997 11.1266 17.4697 11.2174 17.4681 11.3114V13.0959C17.4681 13.324 17.3843 13.5427 17.2352 13.704C17.0862 13.8653 16.8839 13.9559 16.673 13.9559H3.59455C3.38369 13.9559 3.18147 13.8653 3.03237 13.704C2.88327 13.5427 2.79951 13.324 2.79951 13.0959V11.3114C2.79792 11.2174 2.76791 11.1266 2.71406 11.0528C2.66022 10.979 2.58551 10.9264 2.50137 10.9029C2.17994 10.8419 1.89174 10.6517 1.69465 10.3704C1.49757 10.089 1.40621 9.73743 1.43893 9.38622C1.47165 9.035 1.62602 8.71022 1.87104 8.477C2.11605 8.24386 2.43355 8.11965 2.75976 8.12936H2.79951C2.96483 8.12679 3.12899 8.15965 3.2825 8.22607C3.43602 8.2925 3.57585 8.39115 3.69394 8.51636C3.81984 8.647 3.91998 8.80393 3.9883 8.97757C4.05662 9.15129 4.09172 9.33807 4.09146 9.52686V11.7414C4.09146 11.8554 4.13334 11.9648 4.20789 12.0454C4.28244 12.1261 4.38355 12.1714 4.48898 12.1714H15.7787C15.8841 12.1714 15.9852 12.1261 16.0597 12.0454C16.1342 11.9648 16.1762 11.8554 16.1762 11.7414V9.52686C16.1683 9.34336 16.1939 9.15993 16.2517 8.98715C16.3094 8.81436 16.3979 8.6555 16.5124 8.51979C16.7435 8.24558 17.0658 8.08193 17.4084 8.06486C17.7511 8.04772 18.086 8.17858 18.3394 8.42858C18.5929 8.67858 18.7442 9.02722 18.76 9.39786Z" stroke="white" stroke-width="0.6"/>
</g>
</svg>
