<svg width="17" height="16" viewBox="0 0 17 16" fill="none" xmlns="http://www.w3.org/2000/svg">
<path fill-rule="evenodd" clip-rule="evenodd" d="M0.428589 2.69709C0.428589 1.68781 1.25922 0.856998 2.26868 0.856998L14.0104 0.856934C14.3829 0.856934 14.7144 1.18838 14.7144 1.56083V3.12948H15.3361C16.2407 3.12948 16.9869 3.87588 16.9869 4.78029V13.4919C16.9869 14.3964 16.2405 15.1426 15.3361 15.1426H2.0794C1.17484 15.1426 0.428589 14.3962 0.428589 13.4919V2.69709ZM13.3064 2.26481H2.26868C2.01905 2.26481 1.83622 2.44763 1.83622 2.69726C1.83622 2.94688 2.01906 3.12971 2.26868 3.12971H13.3064V2.26481ZM1.7005 4.30112L1.70057 13.4921C1.70057 13.7118 1.85961 13.8709 2.0793 13.8709H15.336C15.5557 13.8709 15.7147 13.7118 15.7147 13.4921V11.5983H10.412C9.7923 11.5983 9.27566 11.0816 9.27566 10.4619V7.81065C9.27566 7.19093 9.79237 6.67429 10.412 6.67429H15.7147V4.78051C15.7147 4.56083 15.5557 4.40178 15.336 4.40178H2.26868C2.11937 4.40178 1.97453 4.3811 1.83622 4.34375C1.79024 4.33133 1.74497 4.31708 1.7005 4.30112ZM1.83622 4.48396C1.97472 4.51845 2.11948 4.5375 2.26868 4.5375H15.336C15.4807 4.5375 15.579 4.63579 15.579 4.78051V6.53858H10.412C9.71737 6.53858 9.13995 7.116 9.13995 7.81065V10.4619C9.13995 11.1566 9.71737 11.734 10.412 11.734H15.579V13.4921C15.579 13.6369 15.4807 13.7351 15.336 13.7351H2.0793C1.93457 13.7351 1.83629 13.6369 1.83629 13.4921L1.83622 4.48396ZM15.579 7.94615H10.5478V10.326H15.579V7.94615ZM11.4127 9.13608C11.4127 8.64272 11.8125 8.24286 12.3059 8.24286C12.7992 8.24286 13.199 8.64272 13.199 9.13608C13.199 9.62936 12.7992 10.0292 12.3059 10.0292C11.8125 10.0292 11.4127 9.62936 11.4127 9.13608ZM0.56431 2.69709C0.56431 1.76276 1.33418 0.992727 2.26868 0.992727L14.0104 0.992655C14.3079 0.992655 14.5787 1.26334 14.5787 1.56083V3.2652H15.3361C16.1657 3.2652 16.8512 3.95083 16.8512 4.78029V13.4919C16.8512 14.3214 16.1656 15.0069 15.3361 15.0069H2.0794C1.2498 15.0069 0.56431 14.3213 0.56431 13.4919V2.69709ZM2.26868 2.12908C1.9441 2.12908 1.7005 2.37268 1.7005 2.69726C1.7005 3.02184 1.9441 3.26544 2.26868 3.26544H13.4422V2.12908H2.26868ZM10.412 7.81043V10.4617H15.7147V7.81043H10.412ZM11.5484 9.13608C11.5484 8.71772 11.8875 8.37858 12.3059 8.37858C12.7242 8.37858 13.0633 8.71772 13.0633 9.13608C13.0633 9.55443 12.7242 9.8935 12.3059 9.8935C11.8875 9.8935 11.5484 9.55443 11.5484 9.13608Z" fill="white"/>
</svg>
